<svg version="1.1" id="Layer_1" xmlns="http://www.w3.org/2000/svg" xmlns:xlink="http://www.w3.org/1999/xlink" x="0px" y="0px"
	 viewBox="0 0 190 30" style="enable-background:new 0 0 190 30;" xml:space="preserve">
<style type="text/css">
	.st0{fill:none;}
</style>
<g id="XMLID_2_">
	<path id="XMLID_11_" class="st0" d="M55,1.4c7.5,0,13.6,6.1,13.6,13.6S62.5,28.5,55,28.5c-7.5,0-13.6-6.1-13.6-13.6
		S47.5,1.4,55,1.4 M55,0c-8.3,0-15,6.7-15,15c0,8.3,6.7,15,15,15c8.3,0,15-6.7,15-15C70,6.7,63.3,0,55,0L55,0z"/>
	<path id="XMLID_25_" class="st0" d="M65.4,10.5c-0.7,0.2-1.5,0.3-2.3,0.3c0.9-0.4,1.6-1.1,2-2c-0.8,0.4-1.7,0.6-2.6,0.7
		c-0.6-0.9-1.6-1.5-2.7-1.6c-2.2-0.3-4.2,1.3-4.4,3.5c0,0.3,0,0.6,0,0.9c-3.3-0.6-6-2.5-7.6-5.1c-0.4,0.5-0.7,1.2-0.8,1.9
		c-0.2,1.4,0.4,2.7,1.4,3.5c-0.6-0.1-1.2-0.4-1.7-0.7c0,0,0,0,0,0c-0.2,1.9,0.9,3.7,2.7,4.3c-0.3,0-0.7,0.1-1.1,0
		c-0.3,0-0.5-0.1-0.7-0.2c0.3,1.6,1.6,2.9,3.4,3.2c-1.5,0.9-3.3,1.3-5.1,1.1c-0.3,0-0.6-0.1-0.9-0.2c1.6,1.3,3.6,2.2,5.8,2.5
		c7.3,0.9,12-4.7,12.6-9.9c0-0.2,0-0.3,0.1-0.5C64,11.9,64.7,11.3,65.4,10.5z"/>
</g>
<g id="XMLID_4_">
	<path id="XMLID_10_" class="st0" d="M135,1.4c7.5,0,13.5,6.1,13.5,13.5c0,7.5-6.1,13.5-13.5,13.5c-7.5,0-13.5-6.1-13.5-13.5
		C121.4,7.5,127.5,1.4,135,1.4 M135,0c-8.3,0-15,6.7-15,15c0,8.3,6.7,15,15,15s15-6.7,15-15C149.9,6.7,143.2,0,135,0L135,0z"/>
	<g id="XMLID_51_">
		<path id="XMLID_52_" class="st0" d="M135.5,7.4c0.2,0.1,0.3,0.2,0.5,0.4c0.2,0.2,0.4,0.4,0.5,0.7c0.2,0.3,0.3,0.6,0.4,0.9
			c0.1,0.4,0.2,0.8,0.2,1.2c0,0.9-0.2,1.6-0.6,2.1c-0.2,0.3-0.4,0.5-0.6,0.7c-0.2,0.2-0.5,0.4-0.7,0.6c-0.1,0.1-0.3,0.3-0.4,0.5
			c-0.1,0.2-0.2,0.4-0.2,0.7c0,0.3,0.1,0.5,0.2,0.6c0.1,0.2,0.2,0.3,0.4,0.4l0.8,0.7c0.5,0.4,1,0.9,1.3,1.4c0.4,0.5,0.6,1.2,0.6,2
			c0,1.2-0.5,2.2-1.6,3.1c-1.1,0.9-2.6,1.4-4.7,1.5c-1.7,0-3-0.4-3.8-1.1c-0.8-0.7-1.3-1.5-1.3-2.4c0-0.4,0.1-0.9,0.4-1.5
			c0.3-0.6,0.7-1,1.4-1.5c0.8-0.4,1.6-0.7,2.5-0.9c0.9-0.1,1.6-0.2,2.1-0.2c-0.2-0.2-0.3-0.5-0.5-0.7c-0.2-0.3-0.2-0.6-0.2-0.9
			c0-0.2,0-0.4,0.1-0.5c0.1-0.2,0.1-0.3,0.1-0.4c-0.3,0-0.5,0-0.8,0c-1.3,0-2.3-0.4-2.9-1.2c-0.7-0.7-1.1-1.6-1.1-2.6
			c0-1.2,0.5-2.3,1.5-3.2c0.7-0.6,1.4-0.9,2.1-1.1c0.7-0.1,1.4-0.2,2.1-0.2h4.8L137,7.4H135.5z M136.5,21.3c0-0.6-0.2-1.2-0.6-1.6
			c-0.4-0.4-1.1-1-2-1.6c-0.2,0-0.3,0-0.5,0c-0.1,0-0.4,0-0.9,0c-0.5,0.1-1,0.2-1.5,0.3c-0.1,0-0.3,0.1-0.5,0.2
			c-0.2,0.1-0.5,0.2-0.7,0.4c-0.2,0.2-0.4,0.4-0.6,0.7c-0.2,0.3-0.3,0.7-0.3,1.1c0,0.9,0.4,1.6,1.2,2.1c0.7,0.6,1.7,0.8,3,0.9
			c1.1,0,2-0.3,2.6-0.8C136.2,22.7,136.5,22.1,136.5,21.3z M133.1,14.2c0.6,0,1.2-0.3,1.6-0.7c0.2-0.3,0.3-0.6,0.4-0.9
			c0-0.3,0.1-0.6,0.1-0.8c0-1-0.2-1.9-0.7-2.9c-0.2-0.5-0.5-0.8-0.9-1.1c-0.4-0.3-0.8-0.4-1.3-0.4c-0.7,0-1.2,0.3-1.6,0.8
			c-0.4,0.5-0.5,1.1-0.5,1.8c0,0.9,0.3,1.8,0.8,2.7c0.2,0.4,0.6,0.8,1,1.1C132.1,14.1,132.6,14.2,133.1,14.2z"/>
	</g>
</g>
<polygon id="PLUS_4_" class="st0" points="144.9,9.3 142.4,9.3 142.4,6.8 141.1,6.8 141.1,9.3 138.6,9.3 138.6,10.5 141.1,10.5 
	141.1,13.1 142.4,13.1 142.4,10.5 144.9,10.5 "/>
<g id="XMLID_1_">
	<path id="XMLID_9_" class="st0" d="M14.7,1.4c7.5,0,13.5,6.1,13.5,13.5c0,7.5-6.1,13.5-13.5,13.5S1.2,22.4,1.2,15
		C1.2,7.5,7.3,1.4,14.7,1.4 M14.7,0c-8.3,0-15,6.7-15,15c0,8.3,6.7,15,15,15c8.3,0,15-6.7,15-15C29.7,6.7,23,0,14.7,0L14.7,0z"/>
	<path id="XMLID_21_" class="st0" d="M12.2,24.6v-9H9.8v-3.2h2.4c0,0,0-1.3,0-2.8c0-2.2,1.4-4.2,4.7-4.2c1.3,0,2.3,0.1,2.3,0.1
		l-0.1,3c0,0-1,0-2.1,0c-1.2,0-1.4,0.5-1.4,1.4c0,0.7,0-1.5,0,2.4h3.5L19,15.6h-3.4v9H12.2z"/>
</g>
<g id="XMLID_3_">
	<path id="XMLID_7_" class="st0" d="M95,1.5c7.5,0,13.5,6.1,13.5,13.5S102.4,28.6,95,28.6c-7.5,0-13.5-6.1-13.5-13.5
		S87.5,1.5,95,1.5 M95,0.1c-8.3,0-15,6.7-15,15c0,8.3,6.7,15,15,15c8.3,0,15-6.7,15-15C109.9,6.8,103.2,0.1,95,0.1L95,0.1z"/>
	<path id="XMLID_20_" class="st0" d="M90.3,24.8c-0.1-1,0-1.9,0.2-2.9c0.2-1,1.6-6.8,1.6-6.8s-0.4-0.8-0.4-2c0-1.9,1.1-3.2,2.4-3.2
		c1.1,0,1.7,0.9,1.7,1.9c0,1.1-0.7,2.9-1.1,4.4c-0.3,1.3,0.7,2.4,2,2.4c2.4,0,4-3,4-6.7c0-2.7-1.8-4.8-5.2-4.8c-3.8,0-6.2,2.8-6.2,6
		c0,1.1,0.3,1.9,0.8,2.5c0.2,0.3,0.3,0.4,0.2,0.7c-0.1,0.2-0.2,0.8-0.3,1c-0.1,0.3-0.3,0.4-0.6,0.3c-1.8-0.7-2.6-2.6-2.6-4.8
		c0-3.6,3-7.8,9-7.8c4.8,0,7.9,3.5,7.9,7.2c0,4.9-2.7,8.6-6.8,8.6c-1.4,0-2.6-0.7-3.1-1.6c0,0-0.7,2.9-0.9,3.4
		c-0.3,1-1.2,1.8-1.7,2.5l-0.7,0.7L90.3,24.8z"/>
</g>
<g id="XMLID_29_">
	<path id="XMLID_31_" class="st0" d="M175,1.2c7.5,0,13.6,6.1,13.6,13.6c0,7.5-6.1,13.6-13.6,13.6s-13.6-6.1-13.6-13.6
		C161.4,7.3,167.5,1.2,175,1.2 M175-0.2c-8.3,0-15,6.7-15,15c0,8.3,6.7,15,15,15c8.3,0,15-6.7,15-15C190,6.5,183.3-0.2,175-0.2
		L175-0.2z"/>
	<path id="XMLID_5_" class="st0" d="M179.6,13c0.2,0.5,0.3,1.1,0.3,1.8c0,2.7-2.2,4.9-4.9,4.9s-4.9-2.2-4.9-4.9
		c0-0.6,0.1-1.2,0.3-1.8h-4.1v7.2c0,1,0.8,1.8,2,1.8h13.7c1.1,0,2.4-0.8,2.4-1.8V13H179.6z"/>
	<path id="XMLID_6_" class="st0" d="M175,11.3c-1.9,0-3.4,1.5-3.4,3.4s1.5,3.4,3.4,3.4s3.4-1.5,3.4-3.4S176.9,11.3,175,11.3z"/>
	<path id="XMLID_27_" class="st0" d="M181.9,7h-10.5v2.3h-2.2V7h-0.9h0c-1.1,0-2,1.3-2,2.3V12h4.7c0.9-1.3,2.4-2.2,4.1-2.2
		s3.2,0.9,4.1,2.2h5.2V9.3C184.3,8.3,183,7,181.9,7z M181.7,10.4h-1.8V8.7h1.8V10.4z"/>
</g>
</svg>
