<?xml version="1.0" standalone="no"?>
<!DOCTYPE svg PUBLIC "-//W3C//DTD SVG 1.1//EN" "http://www.w3.org/Graphics/SVG/1.1/DTD/svg11.dtd" >
<svg xmlns="http://www.w3.org/2000/svg">
<metadata></metadata>
<defs>
<font id="typoupright_btregular" horiz-adv-x="692" >
<font-face units-per-em="2048" ascent="1556" descent="-492" />
<missing-glyph horiz-adv-x="317" />
<glyph horiz-adv-x="2048" />
<glyph horiz-adv-x="2048" />
<glyph unicode="&#xd;" horiz-adv-x="317" />
<glyph unicode=" "  horiz-adv-x="317" />
<glyph unicode="&#x09;" horiz-adv-x="317" />
<glyph unicode="&#xa0;" horiz-adv-x="317" />
<glyph unicode="!" horiz-adv-x="389" d="M205 61q0 26 18 44t43 18q26 0 44 -17.5t18 -44.5q0 -25 -18.5 -43t-43.5 -18q-24 0 -42.5 18.5t-18.5 42.5zM209 831v37h113q0 -6 1 -18t1 -19q0 -29 -7 -90q-3 -23 -4 -35l-39 -411h-18l-39 412v5q-8 80 -8 119z" />
<glyph unicode="&#x22;" horiz-adv-x="666" d="M94 1368q0 46 20 70t58 24q37 0 56.5 -24t19.5 -70q0 -6 -1 -15.5l-3 -28.5l-58 -454h-28l-60 453q-2 12 -3 23.5t-1 21.5zM418 1368q0 47 19 70.5t57 23.5q37 0 57 -24.5t20 -69.5q0 -7 -0.5 -15.5t-3.5 -29.5l-59 -453h-29l-57 453q-2 12 -3 23.5t-1 21.5z" />
<glyph unicode="#" horiz-adv-x="1575" d="M129 494l31 79h338l106 304h-368l28 79h369l176 498h94l-174 -498h299l176 498h96l-176 -498h322l-27 -79h-323l-107 -304h348l-28 -79h-348l-175 -494h-96l174 494h-301l-174 -494h-94l174 494h-340zM592 573h301l106 304h-299z" />
<glyph unicode="$" horiz-adv-x="682" d="M109 137q0 45 27.5 72t88.5 41q-11 -23 -16.5 -43t-5.5 -37q0 -37 17.5 -69.5t47.5 -51.5v342q-71 46 -103 93.5t-32 107.5q0 61 35 108t100 74v221h21v-214q25 4 48.5 6.5t45.5 3.5v204h23v-204q73 -11 109 -40.5t36 -78.5q0 -27 -11.5 -48.5t-29.5 -29.5l-57 -24 q7 20 10.5 41.5t3.5 43.5q0 29 -15.5 53.5t-45.5 45.5v-312q94 -59 131.5 -107t37.5 -106q0 -70 -45 -128t-124 -89v-225h-23v217q-24 -5 -47 -7.5t-47 -2.5v-207h-21v207q-77 12 -118 49t-41 94zM207 643q0 -34 15 -63t46 -54v223q-31 -17 -46 -43t-15 -63zM289 39 q16 -7 31 -10.5t30 -3.5q9 0 28 3q3 0 5 1v290q-6 4 -20 12q-53 31 -74 45v-337zM289 512q25 -17 49 -31.5t45 -25.5l-1 307q-16 2 -25.5 3t-16.5 1q-12 0 -24.5 -1.5t-26.5 -4.5v-248zM406 33q47 21 68.5 53.5t21.5 83.5q0 42 -22 74.5t-68 60.5v-272z" />
<glyph unicode="%" horiz-adv-x="1090" d="M119 664q0 94 80 169.5t182 75.5q36 0 68 -9.5t59 -29.5q37 -26 68.5 -38.5t64.5 -12.5q63 0 125 33.5t108 93.5l31 -4l-696 -1063l-31 2l641 983q-47 -31 -92 -46t-92 -15q-32 0 -52.5 5t-35.5 15q11 -22 15.5 -38.5t4.5 -32.5q0 -96 -80 -176t-178 -80 q-81 0 -135.5 47.5t-54.5 120.5zM225 698q0 -87 29 -133.5t84 -46.5q57 0 90 51t33 140q0 85 -26.5 131.5t-76.5 46.5q-60 0 -96.5 -51t-36.5 -138zM502 57q0 95 79 170.5t179 75.5q82 0 136 -44.5t54 -111.5q0 -99 -81 -178.5t-187 -79.5q-75 0 -127.5 49t-52.5 119z M608 94q0 -91 29.5 -136.5t87.5 -45.5q52 0 85.5 51.5t33.5 134.5q0 90 -26.5 136.5t-78.5 46.5q-60 0 -95.5 -50t-35.5 -137z" />
<glyph unicode="&#x26;" horiz-adv-x="1100" d="M248 193q0 68 47 145t141 162q-36 76 -55 141.5t-19 118.5q0 103 69.5 173.5t170.5 70.5q67 0 110.5 -37t43.5 -93q0 -61 -57 -142t-169 -179q50 -95 107.5 -186.5t124.5 -182.5q46 52 69 104t23 103q0 44 -20.5 70t-55.5 26q-11 0 -28 -3.5t-39 -10.5l34 49 q13 14 29.5 21.5t34.5 7.5q48 0 75 -28.5t27 -80.5q0 -60 -34 -128t-103 -144q44 -52 77 -75t62 -23q27 0 48.5 22.5t54.5 89.5l16 -8q-43 -87 -88.5 -131.5t-91.5 -44.5q-37 0 -76.5 25t-79.5 73q-64 -49 -125.5 -73.5t-119.5 -24.5q-90 0 -146.5 53.5t-56.5 139.5z M338 285q0 -91 63 -163.5t142 -72.5q29 0 65 16.5t76 47.5q-72 96 -130.5 186.5t-107.5 181.5q-54 -45 -81 -94t-27 -102zM430 821q0 -49 24 -115t68 -137q79 68 116.5 129.5t37.5 122.5q0 72 -33 113t-90 41q-47 0 -85 -46t-38 -108z" />
<glyph unicode="'" horiz-adv-x="342" d="M94 1368q0 47 19 70.5t57 23.5q37 0 57.5 -24.5t20.5 -69.5q0 -6 -1 -15.5l-3 -28.5l-60 -454h-28l-60 454q-1 6 -1.5 15t-0.5 29z" />
<glyph unicode="(" horiz-adv-x="688" d="M250 360q0 305 112.5 545.5t329.5 399.5v-25q-168 -139 -250 -365.5t-82 -554.5q0 -325 81.5 -551t250.5 -368v-29q-218 160 -330 400t-112 548z" />
<glyph unicode=")" horiz-adv-x="688" d="M156 -563q168 139 249.5 366t81.5 553t-81 551t-250 367v31q217 -159 329.5 -400t112.5 -549q0 -303 -113 -543.5t-329 -400.5v25z" />
<glyph unicode="*" horiz-adv-x="1024" d="M301 926q0 45 84 63.5t131 44.5q-57 38 -130 46q-10 1 -13 1q-36 7 -54 22t-18 40q0 21 15 36t36 15q29 0 78.5 -57t95.5 -82v16q0 46 -20.5 102.5t-20.5 71.5q0 25 16 42.5t38 17.5q21 0 37 -17.5t16 -42.5q0 -15 -20.5 -71.5t-20.5 -102.5v-16q47 22 95.5 80.5 t80.5 58.5q21 0 35 -14.5t14 -36.5q0 -46 -84 -64t-131 -45q58 -38 129 -45q10 -1 15 -2q35 -6 53 -21.5t18 -39.5q0 -22 -15 -37t-36 -15q-30 0 -79 57.5t-95 84.5v-17q0 -47 20.5 -104t20.5 -72q0 -25 -15.5 -42t-37.5 -17q-23 0 -38.5 17t-15.5 42q0 16 20.5 72t20.5 102 v17q-47 -22 -95.5 -81t-80.5 -59q-21 0 -35 15t-14 37z" />
<glyph unicode="+" horiz-adv-x="1706" d="M254 569v82h559v570h80v-570h559v-82h-559v-569h-80v569h-559z" />
<glyph unicode="," horiz-adv-x="342" d="M160 -197q51 37 77.5 74.5t26.5 73.5q0 29 -13.5 47t-42.5 26l-32 -28l-14 14l121 109q23 -22 34 -46t11 -55q0 -60 -44 -121.5t-124 -113.5v20z" />
<glyph unicode="-" horiz-adv-x="877" d="M307 180l58 86h352l-58 -86h-352z" />
<glyph unicode="." horiz-adv-x="342" d="M205 61q0 26 18 44t43 18q26 0 44 -17.5t18 -44.5q0 -25 -18.5 -43t-43.5 -18q-24 0 -42.5 18.5t-18.5 42.5z" />
<glyph unicode="/" horiz-adv-x="598" d="M-45 -190l729 1495h43l-729 -1495h-43z" />
<glyph unicode="0" horiz-adv-x="635" d="M82 348q0 186 76.5 312t183.5 126q97 0 154 -89.5t57 -243.5q0 -204 -66.5 -328.5t-173.5 -124.5q-102 0 -166.5 96t-64.5 252zM178 506q0 -201 56 -330t139 -129q59 0 90 78t31 227q0 177 -52.5 293.5t-128.5 116.5q-59 0 -97 -71t-38 -185z" />
<glyph unicode="1" horiz-adv-x="635" d="M152 289q40 74 87 170t119 250l7 45l94 39l-21 -760l-151 -35v14q41 0 55 321q8 202 16 333q-60 -131 -107 -226t-85 -161z" />
<glyph unicode="2" horiz-adv-x="635" d="M82 25q0 22 16.5 52.5t48.5 67.5q42 61 122 163q163 209 163 317q0 64 -33 102.5t-88 38.5q-56 0 -98.5 -38t-42.5 -89q0 -47 30.5 -74t87.5 -31l-41 -41q-12 -5 -23 -7.5t-21 -2.5q-46 0 -72.5 28t-26.5 77q0 85 71 142.5t177 57.5q85 0 143 -50.5t58 -123.5 q0 -58 -40 -116t-167 -164l-7 -6q-123 -105 -167 -168q25 14 48 21t42 7q34 0 64.5 -13t64.5 -42q13 -11 33 -31q39 -41 68 -41t82 67q12 14 18 22l14 -11q-55 -76 -95.5 -108.5t-80.5 -32.5q-22 0 -44.5 10t-35.5 25q-9 11 -25 31q-74 94 -114 94q-13 0 -25 -5t-26 -16 q-7 -26 -15 -69q-12 -68 -36 -68q-12 0 -19.5 7t-7.5 18z" />
<glyph unicode="3" horiz-adv-x="635" d="M68 147q0 42 21.5 64t62.5 22q11 0 23 -1.5t23 -4.5q-27 -29 -37.5 -51.5t-10.5 -48.5q0 -46 34.5 -77.5t85.5 -31.5q72 0 117 53.5t45 139.5q0 92 -51 141t-148 49h-28v17q98 10 149.5 58t51.5 128q0 70 -35.5 113t-91.5 43q-43 0 -73 -27t-30 -67q0 -43 23.5 -69 t62.5 -26q10 0 15 0.5t9 1.5l-40 -43q-21 -8 -47 -8q-43 0 -70 28.5t-27 72.5q0 68 61 114.5t152 46.5t146 -38t55 -99q0 -73 -52.5 -127.5t-168.5 -99.5q121 -6 188.5 -50.5t67.5 -117.5q0 -101 -87 -176.5t-204 -75.5q-86 0 -139 41t-53 106z" />
<glyph unicode="4" horiz-adv-x="635" d="M20 326q0 22 26 38.5t63 16.5q6 0 19 -2.5t30 -7.5q32 44 49.5 114.5t17.5 157.5q0 65 -10 107t-32 75q5 1 13 1.5t23 0.5q64 0 96.5 -33.5t32.5 -99.5q0 -68 -45.5 -158.5t-124.5 -175.5q51 -24 92.5 -38t73.5 -17q48 126 91.5 211t86.5 135l10 -10q-42 -78 -66 -165 t-32 -187h6q36 0 60 17t24 42q0 12 -7 23t-21 20l30 21q2 1 6 2.5t7 1.5q17 0 29 -12.5t12 -30.5q0 -42 -41.5 -72.5t-102.5 -30.5h-4q-7 -57 -10.5 -111.5t-3.5 -107.5v-37q37 4 55 9q-65 -11 -199 -29q12 79 28 151.5t36 139.5q-42 9 -84 24t-86 37q-51 -37 -71 -47 t-36 -10q-17 0 -29 10.5t-12 26.5zM43 328q0 -10 6.5 -15.5t18.5 -5.5q14 0 34.5 12.5t42.5 34.5q-14 4 -21.5 5t-14.5 1q-30 0 -48 -9t-18 -23z" />
<glyph unicode="5" horiz-adv-x="635" d="M80 160q0 31 23 55.5t47 24.5h6l57 -17q-20 -17 -31.5 -40t-11.5 -46q0 -47 36.5 -80.5t88.5 -33.5q65 0 109.5 51.5t44.5 128.5q0 111 -61 184.5t-150 73.5q-18 0 -36 -5t-34 -14q-11 -45 -20.5 -61t-24.5 -16q-7 0 -9.5 3.5t-2.5 12.5q0 17 9 34t30 38 q13 70 19.5 153.5t6.5 190.5h19l-2 -76q45 40 72 56t48 16q13 0 70 -28t84 -28q17 0 32 9.5t42 37.5l10 -10q-31 -46 -69 -73t-72 -27q-33 0 -85 29.5t-65 29.5q-7 0 -20 -6t-45 -27q0 -28 -5 -74.5t-20 -160.5q35 21 70.5 31t72.5 10q101 0 168.5 -62t67.5 -155 q0 -121 -80 -205t-190 -84q-82 0 -140.5 48.5t-58.5 111.5z" />
<glyph unicode="6" horiz-adv-x="635" d="M90 311q0 200 90.5 337.5t214.5 137.5q61 0 100.5 -25t39.5 -63q0 -39 -26 -63.5t-73 -30.5q7 17 10.5 34.5t4.5 37.5q0 39 -23 63.5t-57 24.5q-76 0 -121 -84t-45 -227q0 -23 0.5 -35t1.5 -22q51 36 94.5 53.5t83.5 17.5q76 0 121 -48.5t45 -131.5q0 -120 -70 -203.5 t-168 -83.5q-96 0 -159.5 87t-63.5 224zM209 374q15 -170 55 -255.5t103 -85.5q42 0 67 48t25 130q0 87 -44 141t-114 54q-22 0 -45.5 -8t-46.5 -24z" />
<glyph unicode="7" horiz-adv-x="588" d="M100 530q14 77 23.5 146t13.5 123h18q-1 -12 -3 -34q-9 -69 -15 -97q28 48 60 74t63 26q38 0 102.5 -38t90.5 -38q12 0 22.5 6t18.5 17l38 82l19 -4q-102 -241 -161.5 -435t-72.5 -331l-151 -39q10 79 93 260t230 442q-26 -20 -56.5 -31.5t-57.5 -11.5q-42 0 -99.5 26.5 t-68.5 26.5q-32 0 -54 -42.5t-34 -129.5z" />
<glyph unicode="8" horiz-adv-x="635" d="M80 178q0 62 45 119t131 104q-75 53 -106 98.5t-31 98.5q0 81 64 134.5t163 53.5q85 0 138 -42t53 -111q0 -50 -36.5 -94t-117.5 -93q89 -57 130.5 -113t41.5 -120q0 -93 -73.5 -153t-186.5 -60q-96 0 -155.5 49.5t-59.5 128.5zM182 236q0 -79 56.5 -141t126.5 -62 q49 0 84.5 35t35.5 86q0 48 -41.5 97t-171.5 140q-46 -33 -68 -71t-22 -84zM195 664q0 -49 44 -102t130 -107q37 28 55 61t18 74q0 76 -39.5 124t-101.5 48q-45 0 -75.5 -28t-30.5 -70z" />
<glyph unicode="9" horiz-adv-x="635" d="M88 502q0 119 69.5 201.5t168.5 82.5q96 0 158.5 -86t62.5 -223q0 -200 -91.5 -338.5t-217.5 -138.5q-59 0 -97.5 27t-38.5 67q0 35 27 59.5t72 30.5q-8 -18 -11.5 -35.5t-3.5 -35.5q0 -40 22.5 -64t59.5 -24q73 0 119.5 86.5t46.5 228.5q0 21 -0.5 32.5t-1.5 20.5 q-50 -36 -95 -53.5t-85 -17.5q-76 0 -120 48t-44 132zM178 578q0 -88 43.5 -141.5t114.5 -53.5q23 0 47.5 8t46.5 23q-15 169 -55.5 255.5t-104.5 86.5q-42 0 -67 -48t-25 -130z" />
<glyph unicode=":" horiz-adv-x="371" d="M205 61q0 26 18 44t43 18q26 0 44 -17.5t18 -44.5q0 -25 -18.5 -43t-43.5 -18q-24 0 -42.5 18.5t-18.5 42.5zM205 360q0 26 18 44t43 18q26 0 44 -17.5t18 -44.5q0 -25 -18.5 -43t-43.5 -18q-24 0 -42.5 18.5t-18.5 42.5z" />
<glyph unicode=";" horiz-adv-x="371" d="M160 -197q51 37 77.5 74.5t26.5 73.5q0 29 -13.5 47t-42.5 26l-32 -28l-14 14l121 109q23 -22 34 -46t11 -55q0 -60 -44 -121.5t-124 -113.5v20zM205 360q0 26 18 44t43 18q26 0 44 -17.5t18 -44.5q0 -25 -18.5 -43t-43.5 -18q-24 0 -42.5 18.5t-18.5 42.5z" />
<glyph unicode="&#x3c;" horiz-adv-x="1706" d="M264 580v61l1178 483v-90l-1045 -424l1045 -424v-88z" />
<glyph unicode="=" horiz-adv-x="1706" d="M254 387v82h1198v-82h-1198zM254 752v79h1198v-79h-1198z" />
<glyph unicode="&#x3e;" horiz-adv-x="1706" d="M264 98v88l1045 424l-1045 424v90l1178 -483v-61z" />
<glyph unicode="?" horiz-adv-x="578" d="M115 727q0 58 59.5 99.5t144.5 41.5q94 0 151.5 -45t57.5 -118q0 -31 -9.5 -58t-29.5 -49q-25 -31 -85 -82.5t-85 -81.5q-22 -28 -32.5 -70t-10.5 -108h-20q2 83 8.5 125t20.5 72q11 25 72 110.5t61 151.5q0 62 -34.5 95.5t-98.5 33.5q-48 0 -95 -29.5t-47 -48.5 q0 -1 44 -14t44 -54q0 -22 -15 -35.5t-40 -13.5q-28 0 -44.5 21t-16.5 57zM205 61q0 26 18 44t43 18q26 0 44 -17.5t18 -44.5q0 -25 -18.5 -43t-43.5 -18q-24 0 -42.5 18.5t-18.5 42.5z" />
<glyph unicode="@" horiz-adv-x="2019" d="M150 537q0 203 85 378.5t250 313.5q132 109 290.5 165t338.5 56q345 0 551.5 -186.5t206.5 -497.5q0 -156 -58 -295.5t-163 -234.5q-60 -55 -123.5 -83t-128.5 -28q-97 0 -148 55t-57 164q-59 -108 -138.5 -162.5t-178.5 -54.5q-115 0 -188 92t-73 240q0 106 49 214 t136 193q65 65 142 101.5t151 36.5q83 0 139.5 -52t79.5 -149l57 184h121l-168 -604l-2 -6q-18 -68 -18 -103q0 -52 27.5 -81t76.5 -29q48 0 108 29t113 79q96 90 150.5 221.5t54.5 274.5q0 291 -194.5 467t-516.5 176q-175 0 -327 -57.5t-271 -167.5q-137 -128 -206.5 -300 t-69.5 -382q0 -175 55.5 -301t177.5 -232q118 -102 268 -155.5t320 -53.5q173 0 331 53.5t292 155.5l26 -30q-146 -109 -309 -164.5t-340 -55.5q-191 0 -342.5 45.5t-271.5 139.5q-151 115 -228 275t-77 356zM731 381q0 -100 44 -157.5t120 -57.5q67 0 131 45.5t123 134.5 q59 91 93 198.5t34 198.5q0 96 -54.5 162t-131.5 66q-58 0 -104.5 -31t-94.5 -102q-74 -109 -117 -234t-43 -223z" />
<glyph unicode="A" horiz-adv-x="1157" d="M102 494q0 188 64 349t190 292q79 82 186.5 129t217.5 47q154 0 256 -79.5t102 -197.5q0 -87 -46 -154t-140 -118v-608q0 -71 14 -96t49 -25q84 0 172.5 77.5t159.5 215.5l19 -7q-82 -154 -185 -236.5t-213 -82.5q-67 0 -102 48.5t-37 143.5q-87 -97 -175.5 -144.5 t-184.5 -47.5q-157 0 -252 134.5t-95 359.5zM233 541q0 -216 86 -350t220 -134q66 0 132 39t138 121v516h-14h-21q-76 0 -124 33t-48 84q0 34 20.5 56t51.5 22h6l59 -6q-23 -21 -34 -41.5t-11 -44.5q0 -38 27 -61t70 -23q3 0 9 1t9 1v260l152 53l-1 -21q-15 -13 -21.5 -29.5 t-6.5 -51.5v-183q58 34 87.5 89t29.5 130q0 129 -81 209t-212 80q-93 0 -190 -52.5t-167 -141.5q-83 -108 -124.5 -245.5t-41.5 -309.5z" />
<glyph unicode="B" horiz-adv-x="1366" d="M86 178q0 41 22 69.5t52 28.5q5 0 12 -2q3 -1 4 -2l78 -32q-44 -34 -62 -60.5t-18 -56.5q0 -50 41.5 -78.5t114.5 -28.5q170 0 255 99t85 299q0 15 -3 95t-3 144q0 187 48.5 306.5t157.5 205.5l9 -12q-48 -41 -72.5 -114t-24.5 -173q0 -80 11.5 -207.5t11.5 -175.5 q0 -205 -138 -346t-339 -141q-107 0 -174.5 51.5t-67.5 130.5zM94 782q0 98 51.5 190t153.5 179q89 75 205.5 115.5t243.5 40.5q188 0 311 -95t123 -237q0 -96 -66 -172t-198 -133h20q141 0 223 -77.5t82 -209.5q0 -154 -98 -269.5t-225 -115.5q-63 0 -105.5 35.5 t-42.5 85.5q0 28 13 45.5t32 17.5q3 0 7 -1t7 -3l41 -20q-15 -19 -21.5 -34.5t-6.5 -33.5q0 -33 22 -53.5t60 -20.5q82 0 140 81.5t58 203.5q0 156 -73 249t-195 93h-14v19q109 23 169 98t60 188q0 153 -99.5 245.5t-264.5 92.5q-89 0 -179 -30.5t-147 -79.5 q-83 -70 -128.5 -158.5t-45.5 -179.5q0 -113 54.5 -185.5t137.5 -72.5q36 0 73.5 16t76.5 49l2 -18q-46 -49 -99.5 -74t-113.5 -25q-114 0 -179 67.5t-65 186.5z" />
<glyph unicode="C" horiz-adv-x="920" d="M100 537q0 151 64.5 303.5t183.5 283.5q80 88 172.5 135.5t181.5 47.5q102 0 162 -56.5t60 -152.5q0 -81 -30.5 -153.5t-90.5 -135.5q-49 -52 -104.5 -80.5t-106.5 -28.5q-57 0 -93 35.5t-36 91.5q0 26 8 45t21 27l63 43q-8 -18 -12 -35t-4 -35q0 -48 31 -77t83 -29 q86 0 148.5 69.5t62.5 165.5q0 105 -69 175.5t-170 70.5q-169 0 -284.5 -165t-115.5 -416q0 -293 128.5 -467t340.5 -174q125 0 222 73t176 228l16 -7q-91 -173 -200.5 -249t-268.5 -76q-234 0 -386.5 153t-152.5 390z" />
<glyph unicode="D" horiz-adv-x="1241" d="M39 92q0 34 51.5 59t126.5 25q54 0 115 -17.5t166 -68.5q61 56 88.5 128.5t27.5 180.5q0 54 -8 149t-8 136q0 141 50.5 249.5t156.5 196.5v-18q-44 -54 -64 -111t-20 -127q0 -47 15.5 -177.5t15.5 -213.5q0 -129 -54 -228.5t-168 -180.5q59 -26 107.5 -38.5t89.5 -12.5 q165 0 272 151.5t107 394.5q0 172 -50 314.5t-147 246.5q-65 71 -147 108.5t-172 37.5q-186 0 -312 -120.5t-126 -299.5q0 -120 55 -197t139 -77q36 0 70 14.5t69 44.5v-18q-50 -49 -103.5 -74t-109.5 -25q-100 0 -165.5 73t-65.5 185q0 77 31.5 154.5t89.5 144.5 q92 107 222 166.5t273 59.5q231 0 364.5 -165.5t133.5 -453.5q0 -310 -129.5 -502t-333.5 -192q-40 0 -91.5 11.5t-121.5 37.5q-78 -24 -137.5 -34.5t-110.5 -10.5q-82 0 -137 27.5t-55 66.5zM57 90q0 -29 48.5 -48t125.5 -19q74 0 124.5 8.5t88.5 27.5q-15 7 -47 21 q-156 70 -227 70q-49 0 -81 -18t-32 -42z" />
<glyph unicode="E" horiz-adv-x="1038" d="M74 410q0 127 74 233.5t217 183.5q-53 42 -79 90t-26 103q0 118 97 202.5t231 84.5q72 0 164 -44t104 -44q17 0 46 20t67 57v-22q-54 -57 -102 -88t-81 -31q-44 0 -137 58.5t-137 58.5q-63 0 -109.5 -57t-46.5 -138q0 -55 24 -108t71 -101q33 13 70 19t77 6q59 0 95 -21 t36 -55q0 -29 -37 -48t-98 -19q-46 0 -99 16.5t-112 48.5q-84 -46 -129 -131t-45 -195q0 -187 115 -321.5t274 -134.5q125 0 210 82t85 204q0 108 -60 177t-153 69q-59 0 -100 -39.5t-41 -97.5q0 -49 30.5 -83t73.5 -34q14 0 30 5t38 16l-43 -65q-10 -13 -23 -18t-35 -5 q-50 0 -84 37t-34 94q0 94 77.5 166.5t180.5 72.5q97 0 157 -62t60 -163q0 -164 -128.5 -276.5t-320.5 -112.5q-195 0 -319.5 116t-124.5 294zM463 854q47 -42 87.5 -62t78.5 -20q34 0 57 13.5t23 31.5q0 26 -33.5 41.5t-87.5 15.5q-28 0 -58 -4.5t-67 -15.5z" />
<glyph unicode="F" horiz-adv-x="1071" d="M76 188q0 40 24.5 67.5t57.5 27.5q4 0 10.5 -1.5t11.5 -2.5l76 -25q-45 -25 -66.5 -52t-21.5 -59q0 -54 50 -90.5t128 -36.5q130 0 219.5 98t89.5 244q0 96 -51 254t-51 226q0 91 42 179t124 167v-19q-36 -46 -54 -97.5t-18 -106.5q0 -64 18 -125.5t54 -124.5q9 4 28 14 q94 47 115 47q13 0 38 -6.5t55 -17.5l51 40l12 -12l-137 -121q-29 28 -52 41t-43 13q-9 0 -25 -4.5t-34 -12.5q28 -61 40.5 -116t12.5 -111q0 -200 -124 -333.5t-306 -133.5q-111 0 -192.5 59t-81.5 131zM111 1006q0 127 100.5 214t249.5 87q95 0 250.5 -41t212.5 -41 q38 0 66 15.5t52 51.5l-6 -62q-4 -32 -32 -51.5t-72 -19.5q-40 0 -189 64.5t-256 64.5q-120 0 -201 -71.5t-81 -178.5q0 -58 33.5 -98.5t78.5 -40.5q9 0 16.5 1t14.5 3l-24 -45q-8 -14 -24.5 -21.5t-39.5 -7.5q-69 0 -109 47.5t-40 129.5z" />
<glyph unicode="G" horiz-adv-x="1085" d="M106 829q0 104 49 197t142 170q65 54 148 84.5t167 30.5q155 0 261 -83.5t106 -203.5q0 -100 -71 -165.5t-179 -65.5q-104 0 -174 55.5t-70 134.5q0 44 32.5 76.5t76.5 32.5q22 0 42.5 -11.5t47.5 -38.5h-6q-59 0 -89 -25t-30 -75q0 -57 37.5 -93t95.5 -36q77 0 127.5 63 t50.5 160q0 110 -77 182t-193 72q-166 0 -269.5 -108t-103.5 -283q0 -178 107 -295t268 -117q61 0 123.5 21t126.5 61q30 80 75.5 133.5t76.5 53.5q4 0 6.5 -1.5t3.5 -4.5q0 -15 -18 -44t-50 -67v-21q0 -43 10.5 -125.5t10.5 -123.5q0 -176 -122.5 -272.5t-344.5 -96.5 q-157 0 -249.5 62.5t-92.5 164.5q0 55 25.5 94t60.5 39q6 0 25 -6q3 -1 5 -2l103 -41q-73 -16 -110.5 -50.5t-37.5 -84.5q0 -69 67.5 -113.5t176.5 -44.5q128 0 215.5 53.5t124.5 153.5q19 49 24 161.5t11 160.5q-87 -55 -168.5 -83t-155.5 -28q-182 0 -300 111.5 t-118 281.5z" />
<glyph unicode="H" horiz-adv-x="1450" d="M29 186q0 43 27.5 72t68.5 29q22 0 78 -30l10 -5q-46 -28 -68 -56.5t-22 -60.5q0 -52 50.5 -84.5t133.5 -32.5q132 0 213.5 88t81.5 232q0 44 -27.5 194.5t-27.5 255.5q0 158 51.5 282t156.5 218l-18 -9q-144 -67 -225 -67q-42 0 -125 27t-129 27q-83 0 -140 -52 t-57 -129q0 -58 35.5 -93.5t93.5 -35.5q48 0 78.5 26t30.5 65q0 9 -2.5 21t-7.5 27q38 -1 63 -22.5t25 -52.5q0 -48 -48.5 -85.5t-113.5 -37.5q-76 0 -125 50t-49 128q0 99 79.5 169.5t190.5 70.5q53 0 143 -22.5t134 -22.5q65 0 103.5 9t78.5 30l10 -15 q-72 -61 -105.5 -138t-33.5 -181q0 -75 36 -243t36 -261q0 -204 -119 -337.5t-299 -133.5q-118 0 -192 53t-74 133zM721 647q11 20 28 31.5t35 11.5q22 0 53 -15.5t48 -15.5h6q-11 -26 -25.5 -38.5t-34.5 -12.5q-15 0 -50.5 18.5t-59.5 20.5zM913 481q0 145 26.5 282 t78.5 259q60 142 134 212.5t163 70.5q62 0 106.5 -40t44.5 -96v-12q-25 -23 -48.5 -36.5t-50.5 -20.5q6 17 9.5 35t3.5 39q0 50 -25.5 79t-70.5 29q-113 0 -183.5 -180t-70.5 -481q0 -297 60.5 -443.5t183.5 -146.5q94 0 183.5 75.5t164.5 219.5l18 -7 q-84 -160 -187.5 -239.5t-227.5 -79.5q-155 0 -233.5 121t-78.5 360z" />
<glyph unicode="I" horiz-adv-x="901" d="M47 174q0 45 27.5 78t64.5 33q16 0 37 -8t49 -25q-52 -27 -73 -52t-21 -59q0 -52 45.5 -88.5t114.5 -36.5q173 0 260.5 119.5t87.5 356.5q0 83 -3 169.5t-3 90.5q0 137 38.5 250.5t129.5 242.5q-255 -83 -401 -214.5t-146 -274.5q0 -77 47.5 -129t116.5 -52q35 0 64.5 15 t58.5 47l-15 -80q-5 -28 -39.5 -46.5t-83.5 -18.5q-88 0 -147 63t-59 158q0 168 157 312.5t445 238.5q16 21 29.5 33t23.5 12q8 -1 9 -2.5t1 -8.5q0 -10 -10 -21.5t-29 -23.5q-38 -60 -58 -143t-20 -186q0 -80 15.5 -215.5t15.5 -190.5q0 -227 -134.5 -373.5t-340.5 -146.5 q-109 0 -181.5 51t-72.5 125z" />
<glyph unicode="J" horiz-adv-x="1014" d="M27 -109q0 125 106.5 223.5t241.5 98.5q82 0 140 -41.5t58 -95.5q0 -27 -11.5 -44.5t-37.5 -27.5l-50 -20q3 11 5 22t2 25q0 67 -43.5 108t-115.5 41q-93 0 -159.5 -74t-66.5 -184q0 -118 74 -191t195 -73q153 0 250.5 140t97.5 366q0 86 -25.5 249t-25.5 240 q0 172 68 328.5t192 265.5q-293 -79 -458 -220.5t-165 -309.5q0 -90 45.5 -140.5t126.5 -50.5q31 0 63 13t68 39l-27 -80q-11 -33 -43.5 -51.5t-78.5 -18.5q-91 0 -151 70t-60 176q0 191 183.5 350t510.5 246l11 7q47 32 54 32q3 0 6 -3.5t3 -7.5q0 -10 -12.5 -19.5 t-36.5 -16.5q-84 -87 -130.5 -215t-46.5 -273q0 -92 31 -267.5t31 -262.5q0 -117 -28.5 -216.5t-82.5 -168.5q-83 -106 -190 -165t-215 -59q-133 0 -218 72.5t-85 183.5z" />
<glyph unicode="K" horiz-adv-x="1319" d="M29 186q0 43 27.5 72t68.5 29q22 0 78 -30l10 -5q-46 -28 -68 -56.5t-22 -60.5q0 -52 50.5 -84.5t133.5 -32.5q132 0 213.5 88t81.5 232q0 44 -27.5 194.5t-27.5 255.5q0 158 51.5 282t156.5 218l-18 -9q-144 -67 -225 -67q-42 0 -125 27t-129 27q-83 0 -140 -52 t-57 -129q0 -58 35.5 -93.5t93.5 -35.5q48 0 78.5 26t30.5 65q0 9 -2.5 21t-7.5 27q38 -1 63 -22.5t25 -52.5q0 -48 -48.5 -85.5t-113.5 -37.5q-76 0 -125 50t-49 128q0 99 79.5 169.5t190.5 70.5q53 0 143 -22.5t134 -22.5q65 0 103.5 9t78.5 30l10 -15 q-72 -61 -105.5 -138t-33.5 -181q0 -75 36 -243t36 -261q0 -204 -119 -337.5t-299 -133.5q-118 0 -192 53t-74 133zM750 621v14q50 29 82.5 78.5t68.5 177.5q63 218 132.5 316t158.5 98q62 0 98.5 -40.5t36.5 -109.5v-20h-63v6q0 62 -26 98.5t-71 36.5q-54 0 -87.5 -44 t-73.5 -206q-43 -167 -98 -257t-142 -140q99 -12 157 -63.5t93 -157.5q16 -53 40 -144q58 -219 136 -219q69 0 149 75t148 206l18 -7q-81 -153 -181.5 -236t-203.5 -83q-83 0 -129.5 77.5t-97.5 356.5q-16 85 -51 130t-94 57z" />
<glyph unicode="L" horiz-adv-x="1118" d="M14 121q0 59 73 103t179 44q73 0 144 -19.5t149 -61.5q6 18 8 33.5t2 33.5q0 56 -24.5 116t-89.5 154q-17 25 -51 71q-154 210 -154 339q0 155 119 264t290 109q184 0 310.5 -107.5t126.5 -259.5q0 -96 -66.5 -159.5t-167.5 -63.5q-102 0 -184 66.5t-82 144.5 q0 45 28.5 76.5t67.5 31.5q12 0 21.5 -2t15.5 -6l45 -33q-49 -3 -79.5 -35t-30.5 -79q0 -55 41.5 -92t101.5 -37q81 0 132.5 59.5t51.5 155.5q0 138 -95.5 230.5t-238.5 92.5q-123 0 -204.5 -80t-81.5 -202q0 -120 128 -313q23 -35 36 -54q46 -72 68 -138t22 -134 q0 -53 -11.5 -101t-33.5 -94q168 -91 237.5 -116t124.5 -25q98 0 183.5 72t164.5 221l19 -7q-87 -165 -194.5 -244t-246.5 -79q-76 0 -161.5 24t-178.5 72q-54 -47 -122.5 -70.5t-149.5 -23.5q-107 0 -174.5 35t-67.5 88zM84 164q0 -47 66.5 -89t150.5 -42q66 0 120 18.5 t89 52.5q-133 79 -198 106.5t-109 27.5q-53 0 -86 -21t-33 -53z" />
<glyph unicode="M" horiz-adv-x="1753" d="M47 838q0 95 36 180.5t110 165.5q52 59 125.5 90t160.5 31q113 0 206.5 -69.5t148.5 -193.5l193 127q4 -3 13 -9q103 -72 131 -140l172 135q37 -35 74 -52.5t74 -17.5q31 0 60.5 13.5t58.5 40.5l14 -9q-74 -122 -108.5 -265.5t-34.5 -325.5q0 -223 39.5 -362.5 t99.5 -139.5q68 0 152 78.5t153 210.5l19 -7q-80 -148 -182.5 -235.5t-192.5 -87.5q-92 0 -147.5 115t-55.5 309q0 182 56 352t167 326q-53 -35 -108.5 -53.5t-104.5 -18.5q-22 0 -46 10t-60 35l-92 -67q9 -34 13.5 -69.5t4.5 -84.5q0 -113 -8 -335t-23 -505l-141 -14v14 q27 0 38 171.5t11 688.5q0 94 -25.5 138.5t-93.5 89.5l-112 -76q20 -59 30.5 -134t10.5 -167q0 -159 -45 -291t-138 -246q-71 -88 -168.5 -138t-197.5 -50q-102 0 -158.5 44.5t-56.5 123.5q0 56 29.5 93.5t72.5 37.5q8 0 11.5 -0.5t6.5 -1.5l80 -19q-74 -40 -107.5 -77.5 t-33.5 -79.5q0 -48 42.5 -75.5t115.5 -27.5q193 0 310.5 176t117.5 474q0 262 -98.5 425.5t-249.5 163.5q-132 0 -219.5 -92.5t-87.5 -232.5q0 -130 72 -222t169 -92q64 0 109 48t45 116q0 55 -30 90t-75 35q-13 0 -27.5 -2t-37.5 -8q20 41 41.5 57.5t54.5 16.5 q55 0 91 -35.5t36 -89.5q0 -108 -87.5 -194.5t-199.5 -86.5q-101 0 -162 75t-61 202z" />
<glyph unicode="N" horiz-adv-x="1602" d="M53 829q0 69 23 137.5t65 127.5q76 106 180 162.5t224 56.5q134 0 233.5 -75.5t165.5 -227.5l211 159q56 -42 96.5 -59.5t77.5 -17.5q33 0 60 11t51 36v-19q-66 -93 -95.5 -225t-29.5 -338q0 -238 44 -374t120 -136q68 0 147 74t148 205l18 -7q-78 -148 -177 -231.5 t-196 -83.5q-94 0 -159.5 119t-65.5 303q0 182 55 356t158 316q-42 -30 -84 -45t-84 -15q-35 0 -75 12.5t-85 36.5l-131 -96q19 -60 28 -121.5t9 -124.5q0 -157 -41.5 -295.5t-118.5 -236.5q-76 -99 -183 -156t-214 -57q-89 0 -150 51t-61 123q0 56 30 94.5t66 38.5 q2 0 5.5 -1t5.5 -1l108 -26q-77 -36 -114 -75t-37 -83t42 -73.5t109 -29.5q185 0 306.5 173t121.5 444q0 292 -104 468.5t-271 176.5q-142 0 -243 -109.5t-101 -267.5q0 -119 66 -200.5t158 -81.5q60 0 98.5 44t38.5 115q0 60 -28.5 96.5t-74.5 36.5q-17 0 -32.5 -4 t-30.5 -12l47 61q6 9 23 15t36 6q51 0 82 -38t31 -99q0 -111 -79 -191t-189 -80q-102 0 -168 72.5t-66 185.5z" />
<glyph unicode="O" horiz-adv-x="1110" d="M102 559q0 177 57.5 331.5t170.5 285.5l-2 -17q-64 -98 -94.5 -208t-30.5 -238q0 -279 117.5 -461t289.5 -182q164 0 260.5 156.5t96.5 426.5q0 248 -103 417t-241 169q-94 0 -153.5 -59.5t-59.5 -153.5q0 -89 57.5 -149t144.5 -60q7 0 16.5 1t26.5 3q-7 -32 -18.5 -54 t-26.5 -34q-9 -4 -18.5 -6t-18.5 -2q-87 0 -145.5 68t-58.5 170q0 137 91.5 238.5t211.5 101.5q153 0 253.5 -152t100.5 -391q0 -132 -28.5 -261t-77.5 -220q-74 -141 -172 -210t-222 -69q-186 0 -305 155.5t-119 403.5z" />
<glyph unicode="P" horiz-adv-x="1071" d="M20 193q0 39 27 66.5t66 27.5h10l78 -31q-47 -20 -68.5 -44.5t-21.5 -57.5q0 -55 53.5 -94.5t134.5 -39.5q129 0 209 97.5t80 257.5q0 71 -22.5 202.5t-22.5 194.5q0 122 40 232t119 206v-20q-30 -53 -44.5 -109t-14.5 -118q0 -59 13 -142.5t38 -189.5q126 27 194 112.5 t68 214.5q0 136 -98.5 227t-249.5 91q-85 0 -165 -28.5t-146 -82.5q-80 -64 -123 -150.5t-43 -180.5q0 -112 58 -182t149 -70q28 0 56 8t57 24v-14q-43 -38 -92.5 -58t-100.5 -20q-104 0 -171 72t-67 186q0 88 50 180.5t139 172.5q96 84 219.5 130t257.5 46q167 0 276 -94 t109 -236q0 -139 -100 -237t-275 -130q4 -29 6.5 -57t2.5 -57q0 -211 -119 -354.5t-289 -143.5q-117 0 -197 57t-80 136z" />
<glyph unicode="Q" horiz-adv-x="1147" d="M41 121q0 56 71 94.5t181 38.5q63 0 143.5 -18.5t190.5 -59.5q130 141 199 318t69 370q0 206 -75.5 314t-217.5 108q-157 0 -266 -118.5t-109 -288.5q0 -118 56.5 -190.5t146.5 -72.5q76 0 126 54t50 137q0 62 -27 100.5t-69 38.5q-9 0 -24 -2.5l-21 -3.5l51 51 q16 8 41 8q53 0 87 -38.5t34 -100.5q0 -107 -83.5 -187.5t-197.5 -80.5q-117 0 -195.5 76.5t-78.5 191.5q0 54 15.5 106t45.5 99q75 114 188.5 178t241.5 64q194 0 309 -121.5t115 -327.5q0 -193 -95.5 -363.5t-293.5 -328.5q34 -14 94 -41q193 -84 242 -84q92 0 174 69.5 t160 215.5l18 -7q-87 -164 -192 -241.5t-242 -77.5q-68 0 -146.5 24.5t-183.5 77.5q-92 -49 -178 -75.5t-157 -26.5q-87 0 -142 34.5t-55 86.5zM94 145q0 -49 50 -81.5t128 -32.5q68 0 140 21.5t141 62.5q-100 54 -181 81t-145 27q-59 0 -96 -21.5t-37 -56.5z" />
<glyph unicode="R" horiz-adv-x="1374" d="M76 178q0 39 25 70t57 31q7 0 14.5 -2.5t14.5 -6.5l59 -30q-44 -34 -62 -62t-18 -61q0 -47 40.5 -74t112.5 -27q171 0 255.5 99t84.5 299q0 15 -3 95t-3 144q0 187 49 306.5t158 205.5l10 -12q-47 -41 -71.5 -114t-24.5 -173q0 -80 11.5 -207.5t11.5 -175.5 q0 -205 -139 -346t-341 -141q-107 0 -174 51.5t-67 130.5zM88 780q0 99 50.5 191t152.5 178q88 75 205.5 115.5t244.5 40.5q215 0 342 -87.5t127 -230.5q0 -124 -87.5 -219.5t-256.5 -155.5q96 -18 148 -85t98 -257q33 -140 61 -181.5t74 -41.5q69 0 149.5 75t149.5 206 l19 -4q-82 -153 -184 -238.5t-199 -85.5q-93 0 -142.5 74.5t-89.5 310.5l-1 6q-29 185 -105 209v21q121 36 181 119t60 212q0 149 -102 240.5t-268 91.5q-68 0 -133.5 -16t-128.5 -47q-114 -58 -184 -165t-70 -220q0 -112 55.5 -184t138.5 -72q36 0 73 16t77 49l2 -18 q-47 -50 -100.5 -75.5t-112.5 -25.5q-114 0 -179 68t-65 186z" />
<glyph unicode="S" horiz-adv-x="1053" d="M94 289q0 111 90.5 195.5t210.5 84.5q99 0 167.5 -51.5t68.5 -122.5q0 -41 -28.5 -80t-63.5 -49l-45 -12q28 24 41.5 49.5t13.5 56.5q0 74 -57 127.5t-136 53.5q-75 0 -124.5 -51t-49.5 -130q0 -130 107.5 -226.5t259.5 -96.5q145 0 247.5 93t102.5 224q0 119 -68 195 t-292 168q-185 76 -252.5 150.5t-67.5 185.5q0 107 79 179.5t198 72.5q62 0 163.5 -50.5t145.5 -50.5q42 0 95 26t114 77l10 -17q-86 -68 -161 -102.5t-136 -34.5q-69 0 -169 57.5t-140 57.5q-61 0 -108.5 -51.5t-47.5 -120.5q0 -129 313 -248q38 -15 58 -23 q184 -72 259 -159t75 -224q0 -190 -137.5 -315t-342.5 -125q-173 0 -283 81t-110 206z" />
<glyph unicode="T" horiz-adv-x="868" d="M23 188q0 41 26.5 69t67.5 28q15 0 35 -7.5t49 -23.5q-46 -25 -67 -52t-21 -59q0 -54 50.5 -90.5t129.5 -36.5q130 0 219.5 98t89.5 244q0 96 -51 254t-51 226q0 93 41.5 180.5t122.5 165.5v-19q-35 -45 -52.5 -96.5t-17.5 -107.5q0 -57 14 -111.5t51 -134.5l4 -8 q62 -132 62 -242q0 -199 -124 -333t-306 -134q-111 0 -191.5 59t-80.5 131zM57 1006q0 127 100 214t249 87q90 0 245.5 -40t220.5 -40q31 0 58 14.5t59 50.5q1 -4 1.5 -9t0.5 -15q0 -53 -29.5 -81t-84.5 -28q-42 0 -190.5 64.5t-254.5 64.5q-121 0 -201.5 -71.5 t-80.5 -178.5q0 -58 33 -98.5t79 -40.5q10 0 17.5 1t15.5 3v-5q-16 -37 -37 -53t-53 -16q-68 0 -108 47.5t-40 129.5z" />
<glyph unicode="U" horiz-adv-x="1464" d="M-16 831q0 98 46.5 193.5t131.5 171.5q61 54 140.5 84.5t156.5 30.5q158 0 251 -109t93 -297q0 -93 -21.5 -298.5t-21.5 -315.5q0 -125 38.5 -189.5t112.5 -64.5q45 0 97.5 39.5t129.5 133.5q-2 43 -3.5 97t-1.5 119q0 114 6 273.5t18 363.5l174 94v-20q-44 -20 -61 -172 t-17 -674q0 -179 14 -219.5t52 -40.5q70 0 158.5 80.5t158.5 214.5l19 -7q-80 -151 -181 -235t-200 -84q-66 0 -100 47.5t-35 140.5q-73 -93 -141.5 -140.5t-133.5 -47.5q-115 0 -172 90.5t-57 271.5q0 100 17.5 286t17.5 272q0 167 -72 255.5t-207 88.5q-140 0 -239 -101.5 t-99 -244.5q0 -141 77.5 -238.5t184.5 -97.5q72 0 113 41.5t41 113.5q0 67 -34.5 107.5t-90.5 40.5q-18 0 -41 -10.5t-51 -30.5l20 63q9 25 38.5 41.5t68.5 16.5q53 0 91 -47.5t38 -116.5q0 -122 -74.5 -203.5t-183.5 -81.5q-117 0 -191.5 88t-74.5 227z" />
<glyph unicode="V" horiz-adv-x="1219" d="M-141 1102q0 89 76 146t196 57q76 0 183.5 -52.5t152.5 -52.5q40 0 81.5 16t78.5 46l2 -19q-101 -118 -154 -276t-53 -340q0 -256 94 -424t232 -168t234.5 171.5t96.5 434.5q0 250 -65.5 405.5t-165.5 155.5q-44 0 -71 -24.5t-27 -63.5q0 -44 69 -131q21 -27 33 -43 q22 -29 32.5 -57t10.5 -58q0 -36 -14 -68t-43 -63h-17q20 26 27.5 42.5t7.5 33.5q0 39 -44 102h-1q-6 9 -19 28q-79 111 -79 177q0 64 42.5 106t106.5 42q125 0 199 -118.5t74 -322.5q0 -357 -123 -570.5t-326 -213.5q-171 0 -283 146t-112 374q0 183 73.5 357.5 t219.5 336.5q-47 -25 -89.5 -38t-80.5 -13q-73 0 -180 55.5t-160 55.5q-81 0 -138 -49.5t-57 -118.5q0 -51 28.5 -82t76.5 -31q53 0 86 34.5t39 96.5q37 -11 52 -25.5t15 -37.5q0 -43 -41.5 -73t-103.5 -30q-78 0 -125 39.5t-47 104.5z" />
<glyph unicode="W" horiz-adv-x="1493" d="M-127 1085q0 91 81.5 154.5t203.5 63.5q76 0 190.5 -61.5t163.5 -61.5q41 0 89 17t114 54l4 -8q-146 -138 -215.5 -308t-69.5 -390q0 -231 58.5 -369.5t152.5 -138.5q37 0 77.5 26t90.5 82q-16 48 -23.5 106t-7.5 140q0 91 4.5 187t12.5 198q22 17 69 53.5t64 49.5v-11 q0 -23 -10.5 -173t-10.5 -277q0 -201 32.5 -301.5t96.5 -100.5q41 0 86.5 33t85.5 92q62 89 94.5 212.5t32.5 267.5q0 174 -53 323.5t-153 257.5q-32 35 -69.5 54.5t-72.5 19.5q-49 0 -78.5 -28t-29.5 -74q0 -48 33.5 -84t121.5 -78q98 -47 139.5 -102t41.5 -134 q0 -21 -0.5 -34t-2.5 -27h-10q-11 76 -53 128.5t-154 114.5q-94 54 -122.5 91.5t-28.5 91.5q0 70 48.5 116t123.5 46q72 0 149 -48t140 -133q48 -66 75 -166t27 -217q0 -184 -39.5 -327.5t-120.5 -255.5q-60 -84 -117.5 -123t-119.5 -39q-57 0 -104.5 33.5t-86.5 101.5 q-67 -72 -120.5 -103.5t-106.5 -31.5q-131 0 -216 135t-85 352q0 210 88 385t276 338q-59 -33 -113.5 -50t-103.5 -17q-27 0 -56 8.5t-67 28.5q-20 10 -58 33q-107 63 -173 63q-71 0 -132.5 -55t-61.5 -119q0 -52 30 -83.5t80 -31.5q51 0 87 26.5t36 61.5q0 10 -6 35 q-1 6 -2 10q3 1 6 1.5t10 0.5q22 0 35.5 -16t13.5 -41q0 -53 -41 -86t-106 -33q-71 0 -117.5 41.5t-46.5 103.5z" />
<glyph unicode="X" horiz-adv-x="1536" d="M55 809q0 92 45.5 183.5t135.5 181.5q59 59 144 95t167 36q173 0 280 -124t131 -354q60 211 171.5 333t240.5 122q80 0 132 -40.5t52 -102.5q0 -39 -19 -60.5t-52 -21.5q-8 0 -17.5 1.5t-19.5 4.5q10 20 14 37t4 37q0 53 -33 85.5t-88 32.5q-54 0 -109.5 -35t-103.5 -100 q-69 -94 -111 -229.5t-42 -267.5q0 -255 107.5 -423.5t265.5 -168.5q101 0 190 73.5t168 221.5l16 -7q-86 -163 -189.5 -242t-231.5 -79q-169 0 -288 123.5t-161 343.5q-60 -219 -189 -342t-296 -123q-94 0 -154.5 52.5t-60.5 131.5q0 50 31.5 88.5t70.5 38.5q27 0 55.5 -7 t55.5 -21q-75 -39 -111.5 -79t-36.5 -83q0 -46 44.5 -75.5t113.5 -29.5q190 0 321 194t131 484q0 284 -82.5 431t-242.5 147q-144 0 -250.5 -112t-106.5 -267q0 -115 57.5 -195t135.5 -80q67 0 119.5 48.5t52.5 111.5q0 52 -32 87.5t-77 35.5q-9 0 -22.5 -3t-32.5 -9 q13 39 41.5 59.5t69.5 20.5q48 0 80 -34t32 -85q0 -104 -91 -191.5t-199 -87.5q-99 0 -162.5 66.5t-63.5 171.5z" />
<glyph unicode="Y" horiz-adv-x="1251" d="M37 930q0 82 37.5 157.5t109.5 139.5q44 39 105.5 62.5t120.5 23.5q148 0 233.5 -95.5t85.5 -261.5q0 -76 -20.5 -187t-20.5 -144q0 -56 23.5 -84.5t68.5 -28.5q38 0 82 27.5t109 91.5v35q0 169 56 309t167 246v-19q-46 -61 -69 -142t-23 -181q0 -36 9 -145.5t9 -184.5 q0 -241 -137.5 -396t-345.5 -155q-120 0 -190 49.5t-70 132.5q0 48 24.5 77.5t63.5 29.5q10 0 22 -4.5t25 -12.5l29 -16q-35 -25 -52.5 -54t-17.5 -61q0 -55 46 -89t122 -34q163 0 255.5 105t92.5 293q0 22 -3.5 74t-10.5 124q-59 -65 -106.5 -92.5t-98.5 -27.5 q-85 0 -139 77.5t-54 204.5q0 47 15.5 141t15.5 144q0 111 -52 173t-144 62q-120 0 -207.5 -90.5t-87.5 -216.5q0 -101 61 -172.5t146 -71.5q58 0 91.5 28t45.5 87h16q-18 -99 -71.5 -154t-131.5 -55q-99 0 -167 80t-68 201z" />
<glyph unicode="Z" horiz-adv-x="1143" d="M59 51q0 58 67.5 105.5t168.5 54.5l287 430q-28 11 -57 16.5t-60 6.5q-20 0 -43 -9.5t-47 -27.5v18q48 44 95 67t89 23q21 0 40 -3.5t38 -10.5l280 419q-28 -6 -61.5 -10t-71.5 -4q-113 0 -265.5 58.5t-207.5 58.5q-72 0 -123 -46.5t-51 -111.5q0 -62 51 -108.5 t119 -46.5q27 0 53.5 10.5t61.5 34.5l-45 -60q-17 -23 -53 -39t-74 -16q-71 0 -114.5 45.5t-43.5 120.5q0 114 98.5 198.5t235.5 84.5q52 0 109 -15t135 -49q19 -8 57 -26q125 -58 186 -58h19q27 57 51 83t49 26q10 0 15.5 -5t5.5 -14q0 -18 -21.5 -39.5t-87.5 -66.5 l-289 -430q34 -12 61.5 -18.5t47.5 -6.5q24 0 47.5 9.5t50.5 29.5v-20q-46 -44 -94.5 -67.5t-91.5 -23.5q-20 1 -39 4.5t-37 10.5l-283 -424q144 -6 316.5 -70.5t218.5 -64.5q76 0 127 49t51 121q0 63 -39.5 105t-97.5 42q-35 0 -64 -10.5t-57 -34.5l51 78q8 14 42 27.5 t69 13.5q68 0 107.5 -41t39.5 -113q0 -126 -112.5 -220.5t-263.5 -94.5q-100 0 -238.5 72.5t-185.5 89.5q-63 -94 -100.5 -127t-76.5 -33q-20 0 -32.5 14.5t-12.5 38.5zM80 53q0 -16 8 -25.5t23 -9.5q29 0 65 34.5t86 111.5q-1 0 -5 1q-19 3 -30 3q-58 0 -102.5 -36 t-44.5 -79z" />
<glyph unicode="[" horiz-adv-x="688" d="M252 -588v1897h440v-47h-356v-1803h356v-47h-440z" />
<glyph unicode="\" horiz-adv-x="598" d="M-129 1305h43l727 -1495h-43z" />
<glyph unicode="]" horiz-adv-x="688" d="M156 -541h356v1803h-356v47h442v-1897h-442v47z" />
<glyph unicode="^" horiz-adv-x="2048" d="M412 897l534 565h152l534 -565h-84l-526 465l-530 -465h-80z" />
<glyph unicode="_" horiz-adv-x="1024" d="M0 -403h1024v-80h-1024v80z" />
<glyph unicode="`" horiz-adv-x="1024" d="M346 846q0 7 6.5 12.5t14.5 5.5t15 -4.5t13 -13.5l199 -314h-35l-201 283q-6 8 -9 15.5t-3 15.5z" />
<glyph unicode="a" d="M109 164q0 100 74 179t165 79q27 0 55.5 -9t59.5 -28l110 66v-17q-18 -14 -25 -36.5t-7 -75.5v-191q0 -53 7.5 -71.5t26.5 -18.5q59 0 140 78.5t149 206.5l17 -7q-76 -142 -177.5 -230.5t-179.5 -88.5q-37 0 -58.5 29.5t-23.5 82.5q-39 -56 -86.5 -84t-101.5 -28 q-65 0 -105 45t-40 119zM207 211q0 -69 31 -110.5t81 -41.5q35 0 68 23t55 63v142q0 56 -25 86t-73 30q-57 0 -97 -54.5t-40 -137.5z" />
<glyph unicode="b" horiz-adv-x="653" d="M154 150v499q0 200 84.5 338.5t193.5 138.5q49 0 76 -34t27 -97q0 -89 -72 -237.5t-209 -343.5v-99q41 53 86 81t88 28q47 0 77 -34t30 -87q0 -79 -46 -156.5t-122 -126.5q11 -2 20.5 -3t18.5 -1q133 0 235.5 76t183.5 234l19 -4q-90 -170 -195.5 -246t-251.5 -76 q-16 0 -58 7q-5 1 -8 1q-19 -3 -31.5 -4.5t-20.5 -1.5q-62 0 -93.5 37t-31.5 111zM254 174q0 -84 14.5 -115.5t48.5 -31.5q54 0 91.5 56.5t37.5 141.5q0 68 -20.5 109t-54.5 41q-27 0 -58.5 -23.5t-58.5 -64.5v-113zM254 444q105 155 158 290t53 251q0 55 -17 83t-51 28 q-67 0 -105 -110t-38 -310v-232z" />
<glyph unicode="c" horiz-adv-x="584" d="M133 205q0 98 66.5 157.5t177.5 59.5q44 0 72 -17.5t28 -44.5q0 -26 -20 -49t-68 -51l-14 8q9 13 13.5 26t4.5 28q0 33 -19.5 55t-47.5 22q-47 0 -75 -33.5t-28 -91.5q0 -100 59.5 -169.5t141.5 -69.5q86 0 170 74t160 217l18 -7q-84 -160 -187 -239.5t-227 -79.5 q-102 0 -163.5 56t-61.5 149z" />
<glyph unicode="d" d="M109 164q0 100 74 179t165 79q25 0 48.5 -8.5t45.5 -26.5v449l131 36v-16q-17 -14 -24.5 -40.5t-7.5 -72.5v-612q0 -53 7.5 -71.5t26.5 -18.5q59 0 140 78.5t149 206.5l17 -7q-75 -142 -177 -230.5t-180 -88.5q-38 0 -58 27.5t-24 84.5q-49 -56 -95.5 -84t-92.5 -28 q-65 0 -105 45t-40 119zM207 211q0 -70 30 -110t82 -40q31 0 63 22t60 62v217q-26 22 -49.5 31.5t-48.5 9.5q-57 0 -97 -54.5t-40 -137.5z" />
<glyph unicode="e" horiz-adv-x="584" d="M133 203q0 91 66.5 155t160.5 64q46 0 75.5 -25t29.5 -63q0 -48 -49.5 -99.5t-151.5 -109.5q32 -44 73 -67t87 -23q85 0 170 75t160 216l18 -7q-84 -160 -187 -239.5t-227 -79.5q-101 0 -163 56t-62 147zM221 264q0 -35 8.5 -66.5t24.5 -58.5q73 43 110 87.5t37 88.5 q0 37 -21.5 59.5t-55.5 22.5q-46 0 -74.5 -36.5t-28.5 -96.5z" />
<glyph unicode="f" horiz-adv-x="455" d="M51 31q0 16 8 24t23 8q9 0 16.5 -7.5t7.5 -16.5v-25q0 -14 15.5 -21.5t50.5 -8.5v665q0 201 82.5 339t189.5 138q49 0 76 -34t27 -97q0 -86 -71 -233.5t-206 -341.5v-428q111 38 201 122.5t156 211.5l18 -7q-68 -131 -162.5 -218.5t-212.5 -129.5v-426l-133 -39v17 q18 15 26.5 42.5t8.5 72.5v329q-56 2 -88.5 19t-32.5 45zM270 457q102 151 154.5 285.5t52.5 244.5q0 53 -16 81t-47 28q-68 0 -106 -109t-38 -307v-223z" />
<glyph unicode="g" d="M74 -481q0 87 91.5 190t276.5 223v142q-38 -35 -83.5 -54.5t-90.5 -19.5q-74 0 -115.5 43t-41.5 121q0 100 73.5 179t163.5 79q27 0 55.5 -9t59.5 -28l110 66v-17q-18 -14 -25 -36.5t-7 -75.5v-330q108 60 189 143.5t134 190.5l17 -7q-56 -109 -141.5 -197t-198.5 -153 v-51q0 -236 -96 -385t-238 -149q-63 0 -98 35.5t-35 99.5zM156 -473q0 -56 21.5 -88.5t58.5 -32.5q89 0 147.5 113.5t58.5 298.5v92q-143 -88 -214.5 -183.5t-71.5 -199.5zM207 217q0 -79 34 -126.5t91 -47.5q28 0 56.5 14t53.5 41v189q0 57 -24.5 86.5t-73.5 29.5 q-54 0 -95.5 -54.5t-41.5 -131.5z" />
<glyph unicode="h" horiz-adv-x="707" d="M119 -6q17 14 25 40.5t8 71.5v584q0 182 84.5 309t195.5 127q54 0 87.5 -35.5t33.5 -93.5q0 -86 -59.5 -212t-241.5 -402v-109q65 73 123 111.5t102 38.5q38 0 62 -23t24 -59v-221q0 -38 9.5 -56t29.5 -18q53 0 130.5 77.5t144.5 203.5l18 -6q-77 -146 -178.5 -234 t-188.5 -88q-27 0 -45 21t-18 55v235q0 33 -12 47.5t-39 14.5q-25 0 -63 -29.5t-99 -95.5v-234l-133 -37v17zM252 410q120 185 172.5 320t52.5 253q0 55 -19 88t-50 33q-66 0 -111 -100t-45 -256v-338z" />
<glyph unicode="i" horiz-adv-x="455" d="M170 723q0 23 18 41t41 18q25 0 43.5 -17.5t18.5 -41.5q0 -23 -19 -41t-43 -18q-21 0 -40 18.5t-19 40.5zM172 115v293l150 43v-15q-30 -16 -40 -31t-10 -53v-186q0 -74 12.5 -100.5t43.5 -26.5q63 0 147 79t152 208l18 -7q-77 -146 -180 -232.5t-195 -86.5 q-43 0 -70.5 31.5t-27.5 83.5z" />
<glyph unicode="j" horiz-adv-x="451" d="M-113 -485q0 99 72.5 201.5t212.5 201.5v490l150 43v-15q-31 -17 -41.5 -32.5t-10.5 -51.5v-379q133 78 217.5 163.5t133.5 189.5l18 -7q-51 -105 -139.5 -194t-229.5 -174v-37q0 -226 -87.5 -378t-202.5 -152q-45 0 -69 33.5t-24 97.5zM-45 -467q0 -59 16 -89t47 -30 q70 0 112 112t42 304v66q-106 -79 -161.5 -172t-55.5 -191zM170 723q0 23 18 41t41 18q25 0 42.5 -17t17.5 -42q0 -23 -18.5 -41t-41.5 -18q-21 0 -40 18.5t-19 40.5z" />
<glyph unicode="k" horiz-adv-x="688" d="M127 -6q18 15 26.5 42.5t8.5 72.5v581q0 182 83.5 309t194.5 127q54 0 87.5 -36t33.5 -93q0 -85 -66.5 -217t-234.5 -370v-396l-133 -37v17zM260 438q115 162 170 297t55 252q0 54 -19 86.5t-50 32.5q-66 0 -111 -100t-45 -256v-312zM276 231v13q34 84 95.5 132t136.5 48 q19 0 40 -5.5t43 -16.5l-63 -70q-22 19 -41.5 28t-40.5 9q-46 0 -87.5 -33.5t-61.5 -87.5q75 0 155 -114q7 -10 11 -15q37 -52 56.5 -67t41.5 -15q61 0 144 79.5t153 209.5l19 -4q-82 -152 -180.5 -237t-190.5 -85q-54 0 -86.5 25.5t-63.5 97.5q-4 10 -11 30q-26 70 -69 78z " />
<glyph unicode="l" horiz-adv-x="455" d="M172 150v499q0 202 82 339.5t190 137.5q49 0 76 -34t27 -97q0 -86 -71 -233.5t-206 -341.5v-254q0 -80 12.5 -103.5t45.5 -23.5q63 0 147 79t152 208l18 -7q-78 -147 -180.5 -233t-196.5 -86q-49 0 -72.5 36t-23.5 114zM270 457q102 151 154.5 285.5t52.5 244.5 q0 53 -16 81t-47 28q-68 0 -106 -109t-38 -307v-223z" />
<glyph unicode="m" horiz-adv-x="1020" d="M119 -8q17 14 25 41t8 73v310l122 35v-15q-11 -10 -16.5 -21t-5.5 -26v-6v-111q65 73 123 111.5t102 38.5q38 0 62 -22.5t24 -57.5v-70q65 73 124 111.5t104 38.5q38 0 62 -22.5t24 -57.5v-221q0 -38 9.5 -56t28.5 -18q54 0 131.5 77t143.5 202l18 -7 q-76 -144 -178 -231.5t-190 -87.5q-27 0 -44.5 21t-17.5 55v235q0 33 -12 47.5t-39 14.5q-25 0 -64.5 -30t-99.5 -95v-236l-133 -37v17q18 15 26.5 42.5t8.5 71.5v205q0 33 -12 47.5t-39 14.5q-25 0 -63 -29.5t-99 -95.5v-236l-133 -37v17z" />
<glyph unicode="n" horiz-adv-x="707" d="M119 -8q17 14 25 41t8 73v310l122 35v-15q-11 -10 -16.5 -21t-5.5 -26v-6v-111q65 73 123 111.5t102 38.5q38 0 62 -22.5t24 -57.5v-221q0 -38 9.5 -56t29.5 -18q54 0 131.5 77t143.5 202l18 -7q-76 -145 -177.5 -232t-189.5 -87q-27 0 -45 21t-18 55v235q0 33 -12 47.5 t-39 14.5q-25 0 -63 -29.5t-99 -95.5v-236l-133 -37v17z" />
<glyph unicode="o" horiz-adv-x="674" d="M96 166q0 99 85.5 177.5t199.5 78.5q79 0 129.5 -43t50.5 -111q0 -74 -48 -143t-125 -104q11 -2 21 -2.5t23 -0.5q131 0 231 75t181 233l18 -7q-87 -166 -192.5 -242.5t-247.5 -76.5q-28 0 -46.5 0.5t-37.5 1.5q-10 -1 -19.5 -1.5t-23.5 -0.5q-91 0 -145 45t-54 121z M205 233q0 -96 34.5 -152t92.5 -56q57 0 91 44.5t34 123.5q0 91 -34 146.5t-89 55.5q-58 0 -93.5 -44.5t-35.5 -117.5z" />
<glyph unicode="p" d="M119 -483q17 14 25 40.5t8 71.5v787l122 35v-15q-11 -10 -16.5 -21t-5.5 -26v-6v-74q51 57 97.5 85t90.5 28q65 0 104.5 -45t39.5 -119q0 -75 -43 -140t-113 -95q2 -1 5 -1q28 -4 40 -4q116 0 215 78t176 230l17 -7q-80 -154 -184.5 -236.5t-217.5 -82.5q-14 0 -34.5 2.5 t-48.5 7.5q-2 0 -7 -2q-34 -10 -49 -10q-23 0 -44.5 9t-43.5 28v-498l-133 -37v17zM252 59q26 -21 49.5 -31t46.5 -10q57 0 97 55t40 138q0 70 -30 109.5t-82 39.5q-30 0 -61.5 -21.5t-59.5 -62.5v-217z" />
<glyph unicode="q" d="M109 164q0 100 74 179t165 79q27 0 55.5 -9t59.5 -28l110 66v-17q-18 -15 -25 -35t-7 -77v-293q95 19 175 92.5t148 204.5l17 -7q-74 -139 -157.5 -215t-182.5 -94v-399l-133 -37v16q18 16 26 42.5t8 70.5v410q-39 -57 -86.5 -85t-101.5 -28q-65 0 -105 45t-40 119z M207 211q0 -69 31 -110.5t81 -41.5q35 0 68 23t55 63v142q0 60 -23.5 88t-74.5 28q-57 0 -97 -54.5t-40 -137.5z" />
<glyph unicode="r" horiz-adv-x="588" d="M0 78v22q88 79 142.5 172.5t74.5 198.5h18q-3 -15 -6 -37q-1 -5 -2 -8q30 -18 62 -26.5t69 -8.5t68 7.5t59 23.5l4 -16q-45 -49 -66.5 -99.5t-21.5 -107.5q0 -67 24.5 -105.5t66.5 -38.5q53 0 127 73.5t141 197.5l16 -7q-78 -145 -177.5 -232t-182.5 -87q-49 0 -77 34 t-28 93q0 56 29 111t111 147q-60 -32 -120 -49t-116 -17h-27q-40 -78 -87.5 -138.5t-100.5 -102.5z" />
<glyph unicode="s" horiz-adv-x="573" d="M0 78v22q82 72 146 180t110 255l18 -5l-24 -75q97 -72 140.5 -131t43.5 -119q0 -59 -31.5 -108.5t-87.5 -78.5h25q125 0 225.5 76.5t179.5 231.5l17 -7q-82 -158 -186.5 -238.5t-227.5 -80.5q-18 0 -40 0.5t-48 1.5q-9 -1 -18 -1.5t-17 -0.5q-52 0 -102.5 31t-50.5 49 q0 9 23 36t59 56q7 -67 37.5 -104t78.5 -37q46 0 76.5 30t30.5 76q0 53 -42 106t-128 109q-45 -90 -95 -157t-112 -117z" />
<glyph unicode="t" horiz-adv-x="455" d="M66 479v21l106 47v260l152 41v-12q-31 -18 -41.5 -35t-10.5 -51v-160l138 61v-22l-138 -58v-446q0 -53 12 -70.5t42 -17.5q64 0 148 79t153 210l18 -7q-80 -151 -181 -235t-202 -84q-50 0 -70 22t-20 93v411z" />
<glyph unicode="u" horiz-adv-x="707" d="M152 80v336l122 35v-15q-11 -10 -16.5 -21t-5.5 -26v-6v-272q0 -33 11 -47.5t36 -14.5q27 0 64 27.5t102 97.5v240l133 37v-17q-18 -15 -26.5 -42t-8.5 -70v-201q0 -37 9.5 -54.5t29.5 -17.5q54 0 131.5 76t143.5 201l18 -7q-76 -145 -177.5 -232t-189.5 -87 q-27 0 -45 21t-18 55v74q-66 -74 -124 -112t-103 -38q-39 0 -62.5 22t-23.5 58z" />
<glyph unicode="v" horiz-adv-x="688" d="M166 322l59 145h10q-1 -5 -1.5 -10t-0.5 -15q0 -55 86 -187q55 -85 84 -138q55 87 83 172.5t28 167.5q0 99 -44.5 161t-122.5 72l73 45q1 1 4.5 1.5t15.5 0.5q62 0 106 -54t44 -132q0 -91 -49 -210.5t-170 -313.5q23 -5 38.5 -7t28.5 -2q135 0 235.5 74t184.5 234l19 -4 q-91 -172 -197.5 -247t-259.5 -75q-12 0 -27 2t-33 6l-24 -16q1 2 1.5 5t0.5 9q0 49 -126 244q-30 46 -46 72z" />
<glyph unicode="w" horiz-adv-x="930" d="M160 307l53 160h12q-3 -9 -4.5 -18t-1.5 -17q0 -48 56 -152t77 -163l162 350h12q-2 -9 -4 -19.5t-2 -15.5q0 -66 87 -208q41 -67 63 -107q45 73 69.5 155.5t24.5 159.5q0 111 -49 178t-133 72l71 47q2 2 9.5 3t19.5 1q63 0 107.5 -58.5t44.5 -146.5q0 -80 -47 -202.5 t-146 -300.5q11 -3 25 -5t26 -2q126 0 226.5 76t181.5 232l18 -4q-87 -168 -192.5 -245t-245.5 -77q-9 0 -40 6q-9 1 -13 2l-25 -16v10q0 35 -57.5 131.5t-87.5 161.5l-140 -287l-28 -16v14q0 41 -53 141t-76 160z" />
<glyph unicode="x" horiz-adv-x="682" d="M92 18l72 76q19 -12 31 -17t22 -5q27 0 51.5 25t53.5 83q-30 77 -61 109.5t-75 32.5h-16l37 96q5 2 11.5 3t19.5 1q37 0 70 -33t69 -108q46 84 76.5 112.5t68.5 28.5q16 0 31.5 -5.5t34.5 -17.5l-51 -71q-20 16 -35.5 24t-26.5 8q-16 0 -33.5 -19t-52.5 -81 q54 -121 93.5 -167t86.5 -46q61 0 139 75.5t146 203.5l18 -7q-77 -145 -178 -232t-186 -87q-55 0 -94.5 34t-81.5 120q-50 -88 -86.5 -121t-81.5 -33q-14 0 -32 4.5t-40 13.5z" />
<glyph unicode="y" d="M74 -481q0 87 91.5 190t276.5 223v207q-65 -73 -113.5 -106t-90.5 -33q-39 0 -62.5 22t-23.5 58v336l122 35v-15q-11 -10 -16.5 -21t-5.5 -26v-6v-272q0 -33 10 -47.5t33 -14.5t57.5 27.5t89.5 89.5v248l133 37v-17q-18 -15 -26 -42t-8 -70v-330q108 60 189 143.5 t134 190.5l17 -7q-56 -109 -141.5 -197t-198.5 -153v-51q0 -234 -96.5 -384t-237.5 -150q-63 0 -98 35.5t-35 99.5zM156 -473q0 -56 21.5 -88.5t58.5 -32.5q89 0 147.5 113.5t58.5 298.5v92q-143 -88 -214.5 -183.5t-71.5 -199.5z" />
<glyph unicode="z" horiz-adv-x="592" d="M86 -469q0 100 82 212.5t231 213.5q-13 52 -44 83t-81 42q-33 -39 -58 -58.5t-42 -19.5q-12 0 -18 6t-6 19q0 28 33 49t89 26l199 250q-46 -26 -89.5 -38.5t-86.5 -12.5q-33 0 -63 5.5t-60 17.5l57 127l15 -4l-6 -19q38 -29 78 -43t81 -14q48 0 82 14t56 43l12 -8 l-252 -318q55 -4 98 -30t72 -72q108 73 181 152.5t118 171.5l18 -7q-44 -91 -118 -171.5t-191 -163.5q19 -37 28 -79t9 -89q0 -104 -36 -196t-107 -173q-29 -33 -65 -51.5t-71 -18.5q-65 0 -105 42.5t-40 111.5zM158 -467q0 -65 19.5 -100t55.5 -35q84 0 135.5 102t51.5 273 q0 34 -4 76t-13 90q-120 -83 -182.5 -186.5t-62.5 -219.5zM168 33q0 -6 2 -8t8 -2q11 0 31.5 16t46.5 47q-39 -6 -63.5 -21.5t-24.5 -31.5z" />
<glyph unicode="{" horiz-adv-x="1024" d="M176 608v56q169 15 227 72.5t58 211.5v221q0 200 80 273.5t293 73.5h10v-47q-153 -2 -207.5 -55t-54.5 -210v-147q0 -225 -64.5 -308t-238.5 -114q174 -30 238.5 -112.5t64.5 -309.5v-147q0 -157 54.5 -210t207.5 -55v-45h-10q-213 0 -293 73t-80 273v222 q0 154 -59.5 212.5t-225.5 71.5z" />
<glyph unicode="|" horiz-adv-x="1024" d="M467 -483v2048h90v-2048h-90z" />
<glyph unicode="}" horiz-adv-x="1024" d="M178 -199q154 2 209 55t55 210v147q0 226 64 308t239 114q-174 31 -238.5 114t-64.5 308v147q0 156 -55 209.5t-209 55.5v47h10q214 0 294.5 -74t80.5 -273v-221q0 -155 58 -212t227 -72v-56q-166 -13 -225.5 -71.5t-59.5 -212.5v-222q0 -198 -80.5 -272t-294.5 -74h-10 v45z" />
<glyph unicode="~" horiz-adv-x="1706" d="M178 481v92q105 74 201 110t186 36q100 0 271 -61q12 -5 19 -7q8 -3 27 -10q168 -61 261 -61q83 0 175 37.5t212 121.5v-92q-106 -74 -202 -110.5t-185 -36.5q-99 0 -266 61q-16 6 -22 8q-12 4 -33 12q-167 60 -257 60q-83 0 -175 -37.5t-212 -122.5z" />
<glyph unicode="&#xa1;" horiz-adv-x="389" d="M205 807q0 25 18 43t43 18t43.5 -18.5t18.5 -42.5q0 -25 -18 -43.5t-44 -18.5t-43.5 18t-17.5 44zM209 0v35q0 22 1.5 48t6.5 78l39 414h18l39 -413q1 -11 4 -35q7 -60 7 -90v-37h-115z" />
<glyph unicode="&#xa2;" horiz-adv-x="635" d="M92 0l113 213q-44 34 -65 76t-21 94q0 94 66.5 156.5t164.5 62.5q13 0 28 -1.5t32 -4.5l102 190h25l-107 -198q34 -11 52 -28t18 -40q0 -30 -30 -55t-69 -25h-10q18 18 26.5 34t8.5 32q0 10 -4.5 19.5t-13.5 19.5l-140 -260q26 -29 56.5 -43.5t64.5 -14.5q32 0 64 15 t65 45l12 -15q-52 -45 -104.5 -67.5t-106.5 -22.5q-25 0 -48.5 5t-45.5 16l-108 -203h-25zM211 453q0 -46 10 -81.5t31 -68.5l139 258q-19 9 -35 14t-26 5q-58 0 -88.5 -32.5t-30.5 -94.5z" />
<glyph unicode="&#xa3;" horiz-adv-x="807" d="M25 94q0 50 47 82.5t121 32.5q32 0 79.5 -12t112.5 -37q3 9 4.5 18.5t1.5 22.5q0 32 -11 64.5t-34 66.5h-211v20h193q-8 10 -23 30q-112 147 -112 224q0 86 69 134t193 48q101 0 166 -47t65 -120q0 -56 -40.5 -92.5t-102.5 -36.5q-55 0 -93 32t-38 76q0 29 17 50.5 t38 21.5h6l57 -13q-35 -19 -51 -38t-16 -41q0 -30 19 -50t46 -20q39 0 66 33t27 82q0 66 -45.5 105.5t-120.5 39.5q-73 0 -114.5 -32t-41.5 -87q0 -54 63 -178q39 -76 58 -121h196v-20h-190q2 -13 3 -27.5t1 -42.5q0 -24 -7 -53t-20 -59q133 -66 179 -83.5t71 -17.5 q33 0 63.5 22t63.5 70l17 -8q-47 -73 -91 -104t-98 -31q-40 0 -102 22t-135 62q-37 -41 -89 -62.5t-114 -21.5q-63 0 -103 27t-40 69zM86 127q0 -40 36 -69t87 -29q45 0 83.5 17t63.5 48q-72 45 -122.5 68.5t-75.5 23.5q-32 0 -52 -17t-20 -42z" />
<glyph unicode="&#xa4;" horiz-adv-x="635" d="M-26 238l26 24h112q-2 24 -2.5 38t-0.5 28q0 19 1.5 38.5t4.5 38.5q-9 0 -49.5 -1t-91.5 -2l26 24h119q17 82 57.5 155t102.5 132q36 35 75.5 53t77.5 18q62 0 97.5 -27.5t35.5 -74.5q0 -35 -25 -73t-71 -72q-23 -18 -45.5 -27.5t-42.5 -9.5q-37 0 -59.5 22t-22.5 58 q0 12 5 24t12 17l48 28q-1 -4 -3 -11q-7 -22 -7 -32q0 -33 14 -54.5t38 -21.5q42 0 69 30.5t27 76.5q0 53 -30.5 83t-82.5 30q-74 0 -122.5 -89.5t-53.5 -234.5h309l-24 -24q-59 1 -98.5 2t-43.5 2h-143v-5q0 -33 3.5 -67.5t11.5 -71.5h208l-24 -24q-50 2 -60 2h-119 q29 -98 88.5 -153.5t135.5 -55.5q62 0 113.5 35t86.5 102l17 -6q-48 -84 -108.5 -123t-145.5 -39q-117 0 -198 64t-105 176q-26 0 -58.5 -0.5t-84.5 -1.5z" />
<glyph unicode="&#xa5;" horiz-adv-x="815" d="M61 266l27 25h291v78l-82 110h-49q-9 0 -71 -1.5t-115 -2.5l26 25h193l-72 96q-11 14 -32 42q-79 107 -116 148l162 43l2 -17q-16 -10 -22 -16.5t-6 -13.5q0 -9 13.5 -31t59.5 -85l125 -166h129q47 86 78.5 156t52.5 137l105 26l2 -16q-39 -14 -65 -40t-56 -83l-94 -180 h215l-25 -25q-53 1 -115.5 2.5t-70.5 1.5h-14l-58 -112v-76h283l-25 -25q-52 1 -98.5 1.5t-87.5 0.5h-72v-313l-133 -53v16q17 14 25 41t8 74v235h-131q-41 0 -88 -0.5t-99 -1.5zM408 479l61 -94l45 94h-106z" />
<glyph unicode="&#xa6;" horiz-adv-x="1024" d="M467 -350v758h90v-758h-90zM467 674v758h90v-758h-90z" />
<glyph unicode="&#xa7;" horiz-adv-x="1024" d="M195 516q0 106 72.5 171.5t207.5 80.5q-126 99 -178.5 169.5t-52.5 137.5q0 95 74.5 162.5t179.5 67.5q109 0 185.5 -61.5t90.5 -160.5l-102 -61q4 19 6 37.5t2 36.5q0 81 -52 134.5t-130 53.5q-82 0 -136.5 -43t-54.5 -106q0 -52 41 -105t189 -172q188 -152 240 -225.5 t52 -151.5q0 -106 -71 -172.5t-201 -81.5q134 -105 186 -175.5t52 -139.5q0 -96 -79.5 -163.5t-193.5 -67.5q-118 0 -199 60.5t-94 158.5l109 63q-5 -21 -7.5 -37.5t-2.5 -31.5q0 -86 54.5 -140.5t139.5 -54.5q88 0 146.5 44t58.5 107q0 94 -219 271q-37 30 -57 47 q-158 129 -207 200.5t-49 147.5zM270 559q0 -70 61.5 -142.5t209.5 -174.5q107 13 162 60t55 124q0 68 -56 139t-208 187q-111 -13 -167.5 -61.5t-56.5 -131.5z" />
<glyph unicode="&#xa8;" horiz-adv-x="1024" d="M346 631q0 25 16.5 42t40.5 17t42 -18t18 -41q0 -26 -16.5 -42t-43.5 -16q-26 0 -41.5 16t-15.5 42zM563 631q0 25 16.5 42t41.5 17q23 0 40 -17.5t17 -41.5q0 -26 -15.5 -42t-41.5 -16q-27 0 -42.5 16t-15.5 42z" />
<glyph unicode="&#xa9;" horiz-adv-x="1683" d="M152 678q0 138 51 263t149 224q97 98 225 151.5t267 53.5q134 0 261 -52.5t224 -148.5q96 -95 149.5 -225t53.5 -266q0 -135 -53 -261t-152 -227q-97 -98 -221.5 -150t-263.5 -52q-138 0 -262.5 51.5t-225.5 150.5q-99 100 -150.5 224t-51.5 264zM229 678 q0 -126 46.5 -238.5t134.5 -199.5q88 -89 198 -135t234 -46q126 0 236.5 46.5t195.5 134.5q88 91 135 203.5t47 234.5q0 123 -48 240.5t-132 201.5q-85 85 -198 131.5t-234 46.5q-123 0 -235.5 -47t-198.5 -135q-88 -89 -134.5 -201.5t-46.5 -236.5zM432 664 q0 184 113.5 310t277.5 126q71 0 145 -34t85 -34q28 0 44.5 16t20.5 45l31 1v-308h-37q-32 136 -104 205.5t-181 69.5q-127 0 -192.5 -95.5t-65.5 -281.5q0 -190 70 -286.5t207 -96.5q90 0 161 42.5t126 129.5l30 -20q-55 -102 -140.5 -154.5t-195.5 -52.5 q-164 0 -279.5 122t-115.5 296z" />
<glyph unicode="&#xaa;" horiz-adv-x="520" d="M82 1133q0 70 55.5 125t124.5 55q20 0 41.5 -6.5t44.5 -18.5l82 45v-12q-13 -10 -18.5 -25.5t-5.5 -52.5v-133q0 -39 5.5 -51t20.5 -12q43 0 104 54.5t113 143.5l13 -4q-57 -99 -133.5 -161t-135.5 -62q-28 0 -43.5 20t-17.5 59q-29 -39 -65 -59t-77 -20q-48 0 -78 31.5 t-30 83.5zM156 1165q0 -48 23 -77t61 -29q26 0 50.5 16t41.5 45v99q0 39 -19 60t-55 21q-43 0 -72.5 -38.5t-29.5 -96.5z" />
<glyph unicode="&#xab;" horiz-adv-x="682" d="M182 215q0 13 57 60q29 24 46 38q29 26 71 66q46 43 56 43q3 0 5.5 -2.5t2.5 -5.5q0 -15 -23 -50.5t-112 -150.5q79 -96 107 -137t28 -60q-1 -3 -3.5 -4.5t-6.5 -1.5q-9 0 -55 43q-41 38 -70 64q-17 14 -46 38q-57 47 -57 60zM416 215q0 13 56 60q29 24 46 38 q32 27 73.5 68t51.5 41q3 0 6.5 -2.5t3.5 -5.5q0 -25 -118 -176l-19 -25q86 -104 111.5 -142t25.5 -55q0 -3 -3 -4.5t-7 -1.5q-9 0 -54 43q-42 38 -71 64q-17 14 -46 38q-56 47 -56 60z" />
<glyph unicode="&#xac;" horiz-adv-x="1706" d="M254 774v82h1198v-502h-78v420h-1120z" />
<glyph unicode="&#xad;" horiz-adv-x="877" d="M307 180l58 86h352l-58 -86h-352z" />
<glyph unicode="&#xae;" horiz-adv-x="1683" d="M152 678q0 138 51 263t149 224q97 98 225 151.5t267 53.5q134 0 261 -52.5t224 -148.5q96 -95 149.5 -225t53.5 -266q0 -135 -53 -261t-152 -227q-97 -98 -221.5 -150t-263.5 -52q-138 0 -262.5 51.5t-225.5 150.5q-99 100 -150.5 224t-51.5 264zM229 678 q0 -126 46.5 -238.5t134.5 -199.5q88 -89 198 -135t234 -46q126 0 236.5 46.5t195.5 134.5q88 91 135 203.5t47 234.5q0 123 -48 240.5t-132 201.5q-85 85 -198 131.5t-234 46.5q-123 0 -235.5 -47t-198.5 -135q-88 -89 -134.5 -201.5t-46.5 -236.5zM469 293v38q79 3 108 25 t29 78v512q0 57 -30 80t-107 25v36h391q147 0 231.5 -52.5t84.5 -143.5q0 -75 -70 -122.5t-221 -76.5q92 -30 139.5 -78.5t71.5 -136.5q5 -20 12 -59q15 -88 55 -88q41 0 60 30.5t20 97.5l37 1v-8q0 -88 -37.5 -132.5t-112.5 -44.5q-46 0 -79 18.5t-45 51.5 q-16 39 -17.5 113.5t-9.5 99.5q-23 66 -76 96.5t-147 30.5q-6 0 -19 -1t-20 -1v-248q0 -56 29 -78t108 -25v-38h-385zM717 717q12 -1 26.5 -1.5t40.5 -0.5q128 0 195.5 45t67.5 131q0 76 -58.5 121t-159.5 45q-54 0 -83 -20t-29 -56v-264z" />
<glyph unicode="&#xaf;" horiz-adv-x="1024" d="M356 600v62h312v-62h-312z" />
<glyph unicode="&#xb0;" horiz-adv-x="674" d="M63 1176q0 114 80.5 194t194.5 80q112 0 192 -80.5t80 -193.5q0 -114 -80 -193.5t-194 -79.5q-115 0 -194 79t-79 194zM125 1176q0 -89 62.5 -151t150.5 -62t150.5 62t62.5 151q0 88 -62.5 150.5t-150.5 62.5q-89 0 -151 -62t-62 -151z" />
<glyph unicode="&#xb1;" horiz-adv-x="1706" d="M254 59v82h1198v-82h-1198zM254 727v80h559v354h80v-354h559v-80h-559v-352h-80v352h-559z" />
<glyph unicode="&#xb2;" horiz-adv-x="420" d="M53 328q0 13 11 31t34 42q28 38 82 101q105 122 105 186q0 39 -22 61.5t-58 22.5q-37 0 -64.5 -22.5t-27.5 -53.5q0 -28 19.5 -43.5t57.5 -17.5l-27 -25q-8 -3 -15 -4.5t-15 -1.5q-30 0 -46.5 16.5t-16.5 45.5q0 51 46.5 85.5t116.5 34.5q55 0 93.5 -30.5t38.5 -73.5 q0 -36 -28 -72t-108 -96l-7 -6q-80 -62 -109 -98q18 8 32.5 12t26.5 4q24 0 44 -7.5t42 -25.5q8 -6 22 -19q25 -24 44 -24t51 36q10 11 16 17l8 -6q-34 -45 -61 -65.5t-53 -20.5q-15 0 -30.5 7t-22.5 15t-17 19q-49 56 -76 56q-8 0 -17 -3.5t-17 -8.5q-5 -17 -10 -42 q-8 -41 -23 -41q-8 0 -13.5 4.5t-5.5 10.5z" />
<glyph unicode="&#xb3;" horiz-adv-x="420" d="M45 401q0 25 14.5 38.5t40.5 13.5q12 0 18.5 -0.5t12.5 -1.5q-20 -20 -26.5 -33t-6.5 -29q0 -28 23 -46.5t57 -18.5q47 0 77 32.5t30 83.5q0 56 -33.5 85.5t-97.5 29.5h-19v8q66 8 99.5 36.5t33.5 76.5q0 42 -23 68t-61 26q-28 0 -47.5 -16.5t-19.5 -40.5q0 -26 15 -42 t40 -16q8 0 11 0.5t5 1.5l-26 -26q-12 -4 -31 -4q-27 0 -45 17t-18 42q0 42 40 70t101 28q58 0 94.5 -23t36.5 -59q0 -45 -34.5 -77.5t-110.5 -59.5q79 -3 124.5 -30t45.5 -70q0 -61 -57.5 -106.5t-135.5 -45.5q-56 0 -91.5 25t-35.5 63z" />
<glyph unicode="&#xb4;" horiz-adv-x="1024" d="M430 532l199 314q7 10 13.5 14t14.5 4t14.5 -5.5t6.5 -12.5q0 -8 -3 -15.5t-9 -15.5l-201 -283h-35z" />
<glyph unicode="&#xb5;" horiz-adv-x="1051" d="M-49 -354q0 39 59.5 287t98.5 432l108 520h119l-111 -518q-4 -20 -6 -41.5t-2 -46.5q0 -95 46.5 -153t121.5 -58q99 0 170 85t109 250l110 482h119l-117 -527q-13 -59 -19.5 -104.5t-6.5 -73.5q0 -44 20 -69t55 -25q43 0 77.5 27t53.5 75q13 30 30 79q25 71 44 71 q12 0 19.5 -8.5t7.5 -22.5q0 -30 -15.5 -82.5t-37.5 -93.5q-40 -72 -93.5 -108.5t-117.5 -36.5q-70 0 -107 45t-37 129q0 4 1 15.5t1 17.5q-43 -108 -110 -160.5t-160 -52.5t-149 53.5t-70 156.5q-21 -131 -41 -330q-28 -276 -101 -276q-29 0 -49 18t-20 44z" />
<glyph unicode="&#xb6;" horiz-adv-x="1024" d="M90 1130q0 157 108.5 253t286.5 96h447v-64h-129v-1415h-70v1415h-192v-1415h-70v782q-175 8 -278 102.5t-103 245.5z" />
<glyph unicode="&#xb7;" horiz-adv-x="342" d="M109 397q0 26 18 45t43 19q26 0 43.5 -18.5t17.5 -45.5q0 -25 -17.5 -42t-43.5 -17q-25 0 -43 17.5t-18 41.5z" />
<glyph unicode="&#xb8;" horiz-adv-x="1024" d="M326 -365l8 27q59 -27 112.5 -41t98.5 -14q66 0 105.5 34t39.5 91q0 54 -35.5 84t-99.5 30q-13 0 -28 -1.5t-29 -4.5v160h26v-131q2 0 7 1q30 3 42 3q81 0 125.5 -37t44.5 -102q0 -69 -53.5 -111.5t-142.5 -42.5q-49 0 -105 14t-116 41z" />
<glyph unicode="&#xb9;" horiz-adv-x="420" d="M100 487q30 49 63.5 110.5t74.5 141.5l2 27l63 22l-14 -454l-101 -23v11q29 0 37 185q6 124 13 206q-56 -106 -82.5 -153t-46.5 -79z" />
<glyph unicode="&#xba;" horiz-adv-x="506" d="M72 1135q0 69 64.5 123.5t150.5 54.5q59 0 97 -30t38 -77q0 -52 -36.5 -100t-94.5 -74q9 -1 16 -1.5t17 -0.5q98 0 173 52t136 163l14 -4q-65 -116 -144 -169.5t-186 -53.5q-22 0 -36 0.5t-27 1.5q-7 -1 -14.5 -1.5t-18.5 -0.5q-69 0 -109 31.5t-40 85.5zM154 1182 q0 -68 26 -108t70 -40q42 0 67 32t25 87q0 65 -25 103t-67 38q-43 0 -69.5 -31t-26.5 -81z" />
<glyph unicode="&#xbb;" horiz-adv-x="682" d="M182 16q0 15 23 50.5t112 150.5q-75 91 -105 135t-30 62q0 4 2.5 6t5.5 2q10 0 56 -43q42 -40 71 -66q17 -14 46 -38q57 -47 57 -60t-57 -60q-29 -24 -46 -38q-29 -26 -70 -64q-46 -43 -54 -43q-5 0 -7.5 1.5t-3.5 4.5zM414 16q0 25 118 176l19 25q-81 98 -109 139 t-28 58q0 4 2 6t6 2q10 0 56 -43q41 -40 71 -66q17 -14 46 -38q56 -47 56 -60t-56 -60q-29 -24 -46 -38q-29 -26 -71 -64q-45 -43 -54 -43q-4 0 -7 1.5t-3 4.5z" />
<glyph unicode="&#xbc;" horiz-adv-x="1010" d="M96 508q28 46 59.5 103.5t69.5 131.5l4 25l60 23l-13 -426l-96 -21v8q26 0 34 178q6 115 11 188q-31 -60 -61.5 -114.5t-59.5 -101.5zM190 0l586 786h41l-586 -786h-41zM621 182q0 13 16 22t39 9q5 0 13 -1.5t19 -4.5q20 24 31 64t11 89q0 39 -6.5 62t-20.5 41h22 q41 0 61.5 -18.5t20.5 -55.5q0 -39 -28 -89t-78 -97q30 -13 56.5 -21.5t47.5 -11.5q28 67 56 115.5t57 79.5l6 -7q-26 -42 -41 -90t-20 -106h2q23 0 38 9.5t15 23.5q0 7 -5 13.5t-13 10.5l20 12l2.5 1t5.5 1q10 0 17.5 -7t7.5 -17q0 -24 -26 -40.5t-64 -16.5h-2 q-5 -25 -7 -55t-2 -68v-21q23 2 35 4q-43 -6 -126 -16q6 44 16.5 85t23.5 79q-25 4 -51.5 12.5t-54.5 22.5q-33 -22 -45.5 -27.5t-22.5 -5.5q-11 0 -18.5 5.5t-7.5 14.5zM635 184q0 -6 4 -9t12 -3q9 0 22.5 7t26.5 20q-2 0 -7 1q-12 3 -17 3q-18 0 -29.5 -5.5t-11.5 -13.5z " />
<glyph unicode="&#xbd;" horiz-adv-x="1010" d="M96 508q28 46 59.5 103.5t69.5 131.5l4 25l60 23l-13 -426l-96 -21v8q26 0 34 178q6 115 11 188q-31 -60 -61.5 -114.5t-59.5 -101.5zM190 0l586 786h41l-586 -786h-41zM659 14q0 12 10.5 29t30.5 39q27 34 77 91q104 117 104 177q0 36 -20.5 57t-55.5 21 q-36 0 -63 -20.5t-27 -49.5q0 -26 19.5 -41.5t55.5 -17.5l-27 -23q-6 -3 -13 -4.5t-15 -1.5q-29 0 -45 16t-16 44q0 47 44.5 79.5t110.5 32.5q54 0 90.5 -28.5t36.5 -69.5q0 -33 -25.5 -65.5t-105.5 -92.5l-4 -3q-76 -57 -104 -93q17 9 31 12.5t26 3.5q20 0 39 -7.5 t41 -24.5q9 -7 22 -18q25 -21 42 -21q18 0 50 35q8 9 13 14l8 -6q-33 -43 -58.5 -61.5t-51.5 -18.5q-15 0 -29 6t-21 15q-3 3 -11 12q-51 57 -77 57q-6 0 -13.5 -2.5t-18.5 -7.5q-5 -16 -10 -40q-7 -38 -23 -38q-7 0 -12 4t-5 10z" />
<glyph unicode="&#xbe;" horiz-adv-x="1010" d="M43 428q0 24 14 36.5t39 12.5q5 0 10.5 -0.5t18.5 -3.5q-16 -15 -23.5 -28t-7.5 -27q0 -26 22 -44t54 -18q45 0 73.5 30.5t28.5 78.5q0 51 -32 78.5t-93 27.5h-18v9q61 6 94 33t33 71q0 39 -22.5 63.5t-57.5 24.5q-27 0 -46 -15.5t-19 -37.5q0 -24 15 -38.5t40 -14.5 q6 0 9.5 0.5t4.5 0.5l-24 -24q-15 -4 -31 -4q-27 0 -43 15.5t-16 39.5q0 38 38 64t95 26q56 0 91.5 -21t35.5 -54q0 -41 -33.5 -71.5t-105.5 -55.5q76 -4 117.5 -28.5t41.5 -66.5q0 -56 -54 -98.5t-128 -42.5q-55 0 -88 22.5t-33 59.5zM190 0l586 786h41l-586 -786h-41z M621 182q0 13 16 22t39 9q5 0 13 -1.5t19 -4.5q20 24 31 64t11 89q0 39 -6.5 62t-20.5 41h22q41 0 61.5 -18.5t20.5 -55.5q0 -39 -28 -89t-78 -97q30 -13 56.5 -21.5t47.5 -11.5q28 67 56 115.5t57 79.5l6 -7q-26 -42 -41 -90t-20 -106h2q23 0 38 9.5t15 23.5q0 7 -5 13.5 t-13 10.5l20 12l2.5 1t5.5 1q10 0 17.5 -7t7.5 -17q0 -24 -26 -40.5t-64 -16.5h-2q-5 -25 -7 -55t-2 -68v-21q23 2 35 4q-43 -6 -126 -16q6 44 16.5 85t23.5 79q-25 4 -51.5 12.5t-54.5 22.5q-33 -22 -45.5 -27.5t-22.5 -5.5q-11 0 -18.5 5.5t-7.5 14.5zM635 184q0 -6 4 -9 t12 -3q9 0 22.5 7t26.5 20q-2 0 -7 1q-12 3 -17 3q-18 0 -29.5 -5.5t-11.5 -13.5z" />
<glyph unicode="&#xbf;" horiz-adv-x="578" d="M115 162q0 31 10 58.5t29 49.5q25 31 85 82t85 80q22 28 32.5 71t10.5 109h20q0 -83 -10.5 -134t-34.5 -95q-11 -20 -42 -60q-77 -100 -77 -176q0 -56 35 -89t94 -33q52 0 99 28t47 47q0 1 -44 14t-44 54q0 22 16 36.5t41 14.5q27 0 44 -21t17 -57q0 -57 -60 -99 t-146 -42q-96 0 -151.5 43.5t-55.5 118.5zM315 807q0 25 18.5 43t43.5 18q24 0 42.5 -18.5t18.5 -42.5q0 -25 -18 -43.5t-43 -18.5q-26 0 -44 18t-18 44z" />
<glyph unicode="&#xc0;" horiz-adv-x="1157" d="M102 494q0 188 64 349t190 292q79 82 186.5 129t217.5 47q154 0 256 -79.5t102 -197.5q0 -87 -46 -154t-140 -118v-608q0 -71 14 -96t49 -25q84 0 172.5 77.5t159.5 215.5l19 -7q-82 -154 -185 -236.5t-213 -82.5q-67 0 -102 48.5t-37 143.5q-87 -97 -175.5 -144.5 t-184.5 -47.5q-157 0 -252 134.5t-95 359.5zM233 541q0 -216 86 -350t220 -134q66 0 132 39t138 121v516h-14h-21q-76 0 -124 33t-48 84q0 34 20.5 56t51.5 22h6l59 -6q-23 -21 -34 -41.5t-11 -44.5q0 -38 27 -61t70 -23q3 0 9 1t9 1v260l152 53l-1 -21q-15 -13 -21.5 -29.5 t-6.5 -51.5v-183q58 34 87.5 89t29.5 130q0 129 -81 209t-212 80q-93 0 -190 -52.5t-167 -141.5q-83 -108 -124.5 -245.5t-41.5 -309.5zM573 1729q0 7 6.5 12.5t14.5 5.5t15 -4.5t13 -13.5l199 -314h-35l-201 283q-6 8 -9 15.5t-3 15.5z" />
<glyph unicode="&#xc1;" horiz-adv-x="1157" d="M102 494q0 188 64 349t190 292q79 82 186.5 129t217.5 47q154 0 256 -79.5t102 -197.5q0 -87 -46 -154t-140 -118v-608q0 -71 14 -96t49 -25q84 0 172.5 77.5t159.5 215.5l19 -7q-82 -154 -185 -236.5t-213 -82.5q-67 0 -102 48.5t-37 143.5q-87 -97 -175.5 -144.5 t-184.5 -47.5q-157 0 -252 134.5t-95 359.5zM233 541q0 -216 86 -350t220 -134q66 0 132 39t138 121v516h-14h-21q-76 0 -124 33t-48 84q0 34 20.5 56t51.5 22h6l59 -6q-23 -21 -34 -41.5t-11 -44.5q0 -38 27 -61t70 -23q3 0 9 1t9 1v260l152 53l-1 -21q-15 -13 -21.5 -29.5 t-6.5 -51.5v-183q58 34 87.5 89t29.5 130q0 129 -81 209t-212 80q-93 0 -190 -52.5t-167 -141.5q-83 -108 -124.5 -245.5t-41.5 -309.5zM657 1415l199 314q7 10 13.5 14t14.5 4t14.5 -5.5t6.5 -12.5q0 -8 -3 -15.5t-9 -15.5l-201 -283h-35z" />
<glyph unicode="&#xc2;" horiz-adv-x="1157" d="M102 494q0 188 64 349t190 292q79 82 186.5 129t217.5 47q154 0 256 -79.5t102 -197.5q0 -87 -46 -154t-140 -118v-608q0 -71 14 -96t49 -25q84 0 172.5 77.5t159.5 215.5l19 -7q-82 -154 -185 -236.5t-213 -82.5q-67 0 -102 48.5t-37 143.5q-87 -97 -175.5 -144.5 t-184.5 -47.5q-157 0 -252 134.5t-95 359.5zM233 541q0 -216 86 -350t220 -134q66 0 132 39t138 121v516h-14h-21q-76 0 -124 33t-48 84q0 34 20.5 56t51.5 22h6l59 -6q-23 -21 -34 -41.5t-11 -44.5q0 -38 27 -61t70 -23q3 0 9 1t9 1v260l152 53l-1 -21q-15 -13 -21.5 -29.5 t-6.5 -51.5v-183q58 34 87.5 89t29.5 130q0 129 -81 209t-212 80q-93 0 -190 -52.5t-167 -141.5q-83 -108 -124.5 -245.5t-41.5 -309.5zM561 1415l162 328h32l162 -328h-33l-145 267l-143 -267h-35z" />
<glyph unicode="&#xc3;" horiz-adv-x="1157" d="M102 494q0 188 64 349t190 292q79 82 186.5 129t217.5 47q154 0 256 -79.5t102 -197.5q0 -87 -46 -154t-140 -118v-608q0 -71 14 -96t49 -25q84 0 172.5 77.5t159.5 215.5l19 -7q-82 -154 -185 -236.5t-213 -82.5q-67 0 -102 48.5t-37 143.5q-87 -97 -175.5 -144.5 t-184.5 -47.5q-157 0 -252 134.5t-95 359.5zM233 541q0 -216 86 -350t220 -134q66 0 132 39t138 121v516h-14h-21q-76 0 -124 33t-48 84q0 34 20.5 56t51.5 22h6l59 -6q-23 -21 -34 -41.5t-11 -44.5q0 -38 27 -61t70 -23q3 0 9 1t9 1v260l152 53l-1 -21q-15 -13 -21.5 -29.5 t-6.5 -51.5v-183q58 34 87.5 89t29.5 130q0 129 -81 209t-212 80q-93 0 -190 -52.5t-167 -141.5q-83 -108 -124.5 -245.5t-41.5 -309.5zM532 1436q16 79 44 115.5t73 36.5q16 -1 32 -4.5t32 -10.5l84 -33q6 -3 14 -4.5t22 -1.5q32 0 51 20.5t29 65.5h33q-16 -79 -45 -115 t-76 -36q-13 0 -27.5 3t-32.5 9l-81 33q-11 4 -20.5 6t-22.5 2q-28 0 -47.5 -22t-29.5 -64h-32z" />
<glyph unicode="&#xc4;" horiz-adv-x="1157" d="M102 494q0 188 64 349t190 292q79 82 186.5 129t217.5 47q154 0 256 -79.5t102 -197.5q0 -87 -46 -154t-140 -118v-608q0 -71 14 -96t49 -25q84 0 172.5 77.5t159.5 215.5l19 -7q-82 -154 -185 -236.5t-213 -82.5q-67 0 -102 48.5t-37 143.5q-87 -97 -175.5 -144.5 t-184.5 -47.5q-157 0 -252 134.5t-95 359.5zM233 541q0 -216 86 -350t220 -134q66 0 132 39t138 121v516h-14h-21q-76 0 -124 33t-48 84q0 34 20.5 56t51.5 22h6l59 -6q-23 -21 -34 -41.5t-11 -44.5q0 -38 27 -61t70 -23q3 0 9 1t9 1v260l152 53l-1 -21q-15 -13 -21.5 -29.5 t-6.5 -51.5v-183q58 34 87.5 89t29.5 130q0 129 -81 209t-212 80q-93 0 -190 -52.5t-167 -141.5q-83 -108 -124.5 -245.5t-41.5 -309.5zM573 1514q0 25 16.5 42t40.5 17t42 -18t18 -41q0 -26 -16.5 -42t-43.5 -16q-26 0 -41.5 16t-15.5 42zM790 1514q0 25 16.5 42t41.5 17 q23 0 40 -17.5t17 -41.5q0 -26 -15.5 -42t-41.5 -16q-27 0 -42.5 16t-15.5 42z" />
<glyph unicode="&#xc5;" horiz-adv-x="1157" d="M102 494q0 188 64 349t190 292q79 82 186.5 129t217.5 47q154 0 256 -79.5t102 -197.5q0 -87 -46 -154t-140 -118v-608q0 -71 14 -96t49 -25q84 0 172.5 77.5t159.5 215.5l19 -7q-82 -154 -185 -236.5t-213 -82.5q-67 0 -102 48.5t-37 143.5q-87 -97 -175.5 -144.5 t-184.5 -47.5q-157 0 -252 134.5t-95 359.5zM233 541q0 -216 86 -350t220 -134q66 0 132 39t138 121v516h-14h-21q-76 0 -124 33t-48 84q0 34 20.5 56t51.5 22h6l59 -6q-23 -21 -34 -41.5t-11 -44.5q0 -38 27 -61t70 -23q3 0 9 1t9 1v260l152 53l-1 -21q-15 -13 -21.5 -29.5 t-6.5 -51.5v-183q58 34 87.5 89t29.5 130q0 129 -81 209t-212 80q-93 0 -190 -52.5t-167 -141.5q-83 -108 -124.5 -245.5t-41.5 -309.5zM580 1550q0 74 51 124t125 50q73 0 122.5 -50t49.5 -124t-49.5 -124t-122.5 -50q-74 0 -125 50.5t-51 123.5zM618 1550q0 -57 39 -96 t97 -39q56 0 95.5 39.5t39.5 95.5q0 58 -39 97t-96 39q-59 0 -97.5 -38.5t-38.5 -97.5z" />
<glyph unicode="&#xc6;" horiz-adv-x="1763" d="M102 494q0 188 64 349t190 292q78 80 185 126t219 46q97 0 171 -28.5t124 -84.5q46 52 116 82.5t142 30.5t164 -44t104 -44q17 0 46 20t67 57v-22q-54 -57 -102 -88t-81 -31q-44 0 -137 58.5t-137 58.5q-61 0 -108.5 -57.5t-47.5 -135.5q0 -58 24 -111t71 -100 q37 12 72 18.5t65 6.5q61 0 100 -21.5t39 -54.5q0 -29 -37 -48t-96 -19q-46 0 -99 16.5t-112 48.5q-89 -44 -134.5 -127t-45.5 -199q0 -188 117 -322t278 -134q125 0 210 82t85 204q0 108 -60 177t-153 69q-59 0 -100 -39.5t-41 -97.5q0 -48 31 -82.5t75 -34.5q13 0 28.5 5 t36.5 15l-42 -64q-10 -13 -23 -18t-35 -5q-50 0 -84 37t-34 94q0 93 78.5 166t181.5 73q96 0 155.5 -62t59.5 -163q0 -164 -127.5 -276.5t-317.5 -112.5q-126 0 -222.5 49.5t-160.5 147.5q-107 -102 -206.5 -149.5t-202.5 -47.5q-162 0 -257.5 132.5t-95.5 361.5zM240 541 q0 -217 86.5 -350.5t224.5 -133.5q71 0 146.5 38.5t158.5 117.5q-26 56 -38.5 122t-12.5 154v172q-9 -1 -16.5 -1.5t-18.5 -0.5q-75 0 -123.5 34t-48.5 85q0 33 25 58.5t51 25.5h4l57 -12q-23 -20 -34 -41t-11 -45q0 -38 27 -62t69 -24q4 0 10 1t9 1v369l151 55v-23 q-15 -13 -21.5 -29t-6.5 -51v-303q24 32 63.5 63t100.5 66q-47 44 -70 95t-23 110q0 29 6.5 57t18.5 56q-54 71 -120 106t-148 35q-94 0 -189 -51t-164 -139q-82 -109 -122.5 -246.5t-40.5 -308.5zM1188 854q47 -42 87.5 -62t78.5 -20q33 0 56.5 13.5t23.5 29.5 q0 26 -34 42.5t-87 16.5q-30 0 -61.5 -5t-63.5 -15z" />
<glyph unicode="&#xc7;" horiz-adv-x="920" d="M100 537q0 151 64.5 303.5t183.5 283.5q80 88 172.5 135.5t181.5 47.5q102 0 162 -56.5t60 -152.5q0 -81 -30.5 -153.5t-90.5 -135.5q-49 -52 -104.5 -80.5t-106.5 -28.5q-57 0 -93 35.5t-36 91.5q0 26 8 45t21 27l63 43q-8 -18 -12 -35t-4 -35q0 -48 31 -77t83 -29 q86 0 148.5 69.5t62.5 165.5q0 105 -69 175.5t-170 70.5q-169 0 -284.5 -165t-115.5 -416q0 -293 128.5 -467t340.5 -174q125 0 222 73t176 228l16 -7q-91 -173 -200.5 -249t-268.5 -76q-234 0 -386.5 153t-152.5 390zM443 -365l8 27q59 -27 112.5 -41t98.5 -14 q66 0 105.5 34t39.5 91q0 54 -35.5 84t-99.5 30q-13 0 -28 -1.5t-29 -4.5v160h26v-131q2 0 7 1q30 3 42 3q81 0 125.5 -37t44.5 -102q0 -69 -53.5 -111.5t-142.5 -42.5q-49 0 -105 14t-116 41z" />
<glyph unicode="&#xc8;" horiz-adv-x="1038" d="M74 410q0 127 74 233.5t217 183.5q-53 42 -79 90t-26 103q0 118 97 202.5t231 84.5q72 0 164 -44t104 -44q17 0 46 20t67 57v-22q-54 -57 -102 -88t-81 -31q-44 0 -137 58.5t-137 58.5q-63 0 -109.5 -57t-46.5 -138q0 -55 24 -108t71 -101q33 13 70 19t77 6q59 0 95 -21 t36 -55q0 -29 -37 -48t-98 -19q-46 0 -99 16.5t-112 48.5q-84 -46 -129 -131t-45 -195q0 -187 115 -321.5t274 -134.5q125 0 210 82t85 204q0 108 -60 177t-153 69q-59 0 -100 -39.5t-41 -97.5q0 -49 30.5 -83t73.5 -34q14 0 30 5t38 16l-43 -65q-10 -13 -23 -18t-35 -5 q-50 0 -84 37t-34 94q0 94 77.5 166.5t180.5 72.5q97 0 157 -62t60 -163q0 -164 -128.5 -276.5t-320.5 -112.5q-195 0 -319.5 116t-124.5 294zM401 1729q0 7 6.5 12.5t14.5 5.5t15 -4.5t13 -13.5l199 -314h-35l-201 283q-6 8 -9 15.5t-3 15.5zM463 854q47 -42 87.5 -62 t78.5 -20q34 0 57 13.5t23 31.5q0 26 -33.5 41.5t-87.5 15.5q-28 0 -58 -4.5t-67 -15.5z" />
<glyph unicode="&#xc9;" horiz-adv-x="1038" d="M74 410q0 127 74 233.5t217 183.5q-53 42 -79 90t-26 103q0 118 97 202.5t231 84.5q72 0 164 -44t104 -44q17 0 46 20t67 57v-22q-54 -57 -102 -88t-81 -31q-44 0 -137 58.5t-137 58.5q-63 0 -109.5 -57t-46.5 -138q0 -55 24 -108t71 -101q33 13 70 19t77 6q59 0 95 -21 t36 -55q0 -29 -37 -48t-98 -19q-46 0 -99 16.5t-112 48.5q-84 -46 -129 -131t-45 -195q0 -187 115 -321.5t274 -134.5q125 0 210 82t85 204q0 108 -60 177t-153 69q-59 0 -100 -39.5t-41 -97.5q0 -49 30.5 -83t73.5 -34q14 0 30 5t38 16l-43 -65q-10 -13 -23 -18t-35 -5 q-50 0 -84 37t-34 94q0 94 77.5 166.5t180.5 72.5q97 0 157 -62t60 -163q0 -164 -128.5 -276.5t-320.5 -112.5q-195 0 -319.5 116t-124.5 294zM463 854q47 -42 87.5 -62t78.5 -20q34 0 57 13.5t23 31.5q0 26 -33.5 41.5t-87.5 15.5q-28 0 -58 -4.5t-67 -15.5zM485 1415 l199 314q7 10 13.5 14t14.5 4t14.5 -5.5t6.5 -12.5q0 -8 -3 -15.5t-9 -15.5l-201 -283h-35z" />
<glyph unicode="&#xca;" horiz-adv-x="1038" d="M74 410q0 127 74 233.5t217 183.5q-53 42 -79 90t-26 103q0 118 97 202.5t231 84.5q72 0 164 -44t104 -44q17 0 46 20t67 57v-22q-54 -57 -102 -88t-81 -31q-44 0 -137 58.5t-137 58.5q-63 0 -109.5 -57t-46.5 -138q0 -55 24 -108t71 -101q33 13 70 19t77 6q59 0 95 -21 t36 -55q0 -29 -37 -48t-98 -19q-46 0 -99 16.5t-112 48.5q-84 -46 -129 -131t-45 -195q0 -187 115 -321.5t274 -134.5q125 0 210 82t85 204q0 108 -60 177t-153 69q-59 0 -100 -39.5t-41 -97.5q0 -49 30.5 -83t73.5 -34q14 0 30 5t38 16l-43 -65q-10 -13 -23 -18t-35 -5 q-50 0 -84 37t-34 94q0 94 77.5 166.5t180.5 72.5q97 0 157 -62t60 -163q0 -164 -128.5 -276.5t-320.5 -112.5q-195 0 -319.5 116t-124.5 294zM389 1415l162 328h32l162 -328h-33l-145 267l-143 -267h-35zM463 854q47 -42 87.5 -62t78.5 -20q34 0 57 13.5t23 31.5 q0 26 -33.5 41.5t-87.5 15.5q-28 0 -58 -4.5t-67 -15.5z" />
<glyph unicode="&#xcb;" horiz-adv-x="1038" d="M74 410q0 127 74 233.5t217 183.5q-53 42 -79 90t-26 103q0 118 97 202.5t231 84.5q72 0 164 -44t104 -44q17 0 46 20t67 57v-22q-54 -57 -102 -88t-81 -31q-44 0 -137 58.5t-137 58.5q-63 0 -109.5 -57t-46.5 -138q0 -55 24 -108t71 -101q33 13 70 19t77 6q59 0 95 -21 t36 -55q0 -29 -37 -48t-98 -19q-46 0 -99 16.5t-112 48.5q-84 -46 -129 -131t-45 -195q0 -187 115 -321.5t274 -134.5q125 0 210 82t85 204q0 108 -60 177t-153 69q-59 0 -100 -39.5t-41 -97.5q0 -49 30.5 -83t73.5 -34q14 0 30 5t38 16l-43 -65q-10 -13 -23 -18t-35 -5 q-50 0 -84 37t-34 94q0 94 77.5 166.5t180.5 72.5q97 0 157 -62t60 -163q0 -164 -128.5 -276.5t-320.5 -112.5q-195 0 -319.5 116t-124.5 294zM401 1514q0 25 16.5 42t40.5 17t42 -18t18 -41q0 -26 -16.5 -42t-43.5 -16q-26 0 -41.5 16t-15.5 42zM463 854q47 -42 87.5 -62 t78.5 -20q34 0 57 13.5t23 31.5q0 26 -33.5 41.5t-87.5 15.5q-28 0 -58 -4.5t-67 -15.5zM618 1514q0 25 16.5 42t41.5 17q23 0 40 -17.5t17 -41.5q0 -26 -15.5 -42t-41.5 -16q-27 0 -42.5 16t-15.5 42z" />
<glyph unicode="&#xcc;" horiz-adv-x="901" d="M47 174q0 45 27.5 78t64.5 33q16 0 37 -8t49 -25q-52 -27 -73 -52t-21 -59q0 -52 45.5 -88.5t114.5 -36.5q173 0 260.5 119.5t87.5 356.5q0 83 -3 169.5t-3 90.5q0 137 38.5 250.5t129.5 242.5q-255 -83 -401 -214.5t-146 -274.5q0 -77 47.5 -129t116.5 -52q35 0 64.5 15 t58.5 47l-15 -80q-5 -28 -39.5 -46.5t-83.5 -18.5q-88 0 -147 63t-59 158q0 168 157 312.5t445 238.5q16 21 29.5 33t23.5 12q8 -1 9 -2.5t1 -8.5q0 -10 -10 -21.5t-29 -23.5q-38 -60 -58 -143t-20 -186q0 -80 15.5 -215.5t15.5 -190.5q0 -227 -134.5 -373.5t-340.5 -146.5 q-109 0 -181.5 51t-72.5 125zM457 1729q0 7 6.5 12.5t14.5 5.5t15 -4.5t13 -13.5l199 -314h-35l-201 283q-6 8 -9 15.5t-3 15.5z" />
<glyph unicode="&#xcd;" horiz-adv-x="901" d="M47 174q0 45 27.5 78t64.5 33q16 0 37 -8t49 -25q-52 -27 -73 -52t-21 -59q0 -52 45.5 -88.5t114.5 -36.5q173 0 260.5 119.5t87.5 356.5q0 83 -3 169.5t-3 90.5q0 137 38.5 250.5t129.5 242.5q-255 -83 -401 -214.5t-146 -274.5q0 -77 47.5 -129t116.5 -52q35 0 64.5 15 t58.5 47l-15 -80q-5 -28 -39.5 -46.5t-83.5 -18.5q-88 0 -147 63t-59 158q0 168 157 312.5t445 238.5q16 21 29.5 33t23.5 12q8 -1 9 -2.5t1 -8.5q0 -10 -10 -21.5t-29 -23.5q-38 -60 -58 -143t-20 -186q0 -80 15.5 -215.5t15.5 -190.5q0 -227 -134.5 -373.5t-340.5 -146.5 q-109 0 -181.5 51t-72.5 125zM541 1415l199 314q7 10 13.5 14t14.5 4t14.5 -5.5t6.5 -12.5q0 -8 -3 -15.5t-9 -15.5l-201 -283h-35z" />
<glyph unicode="&#xce;" horiz-adv-x="901" d="M47 174q0 45 27.5 78t64.5 33q16 0 37 -8t49 -25q-52 -27 -73 -52t-21 -59q0 -52 45.5 -88.5t114.5 -36.5q173 0 260.5 119.5t87.5 356.5q0 83 -3 169.5t-3 90.5q0 137 38.5 250.5t129.5 242.5q-255 -83 -401 -214.5t-146 -274.5q0 -77 47.5 -129t116.5 -52q35 0 64.5 15 t58.5 47l-15 -80q-5 -28 -39.5 -46.5t-83.5 -18.5q-88 0 -147 63t-59 158q0 168 157 312.5t445 238.5q16 21 29.5 33t23.5 12q8 -1 9 -2.5t1 -8.5q0 -10 -10 -21.5t-29 -23.5q-38 -60 -58 -143t-20 -186q0 -80 15.5 -215.5t15.5 -190.5q0 -227 -134.5 -373.5t-340.5 -146.5 q-109 0 -181.5 51t-72.5 125zM445 1415l162 328h32l162 -328h-33l-145 267l-143 -267h-35z" />
<glyph unicode="&#xcf;" horiz-adv-x="901" d="M47 174q0 45 27.5 78t64.5 33q16 0 37 -8t49 -25q-52 -27 -73 -52t-21 -59q0 -52 45.5 -88.5t114.5 -36.5q173 0 260.5 119.5t87.5 356.5q0 83 -3 169.5t-3 90.5q0 137 38.5 250.5t129.5 242.5q-255 -83 -401 -214.5t-146 -274.5q0 -77 47.5 -129t116.5 -52q35 0 64.5 15 t58.5 47l-15 -80q-5 -28 -39.5 -46.5t-83.5 -18.5q-88 0 -147 63t-59 158q0 168 157 312.5t445 238.5q16 21 29.5 33t23.5 12q8 -1 9 -2.5t1 -8.5q0 -10 -10 -21.5t-29 -23.5q-38 -60 -58 -143t-20 -186q0 -80 15.5 -215.5t15.5 -190.5q0 -227 -134.5 -373.5t-340.5 -146.5 q-109 0 -181.5 51t-72.5 125zM457 1514q0 25 16.5 42t40.5 17t42 -18t18 -41q0 -26 -16.5 -42t-43.5 -16q-26 0 -41.5 16t-15.5 42zM674 1514q0 25 16.5 42t41.5 17q23 0 40 -17.5t17 -41.5q0 -26 -15.5 -42t-41.5 -16q-27 0 -42.5 16t-15.5 42z" />
<glyph unicode="&#xd0;" horiz-adv-x="1241" d="M39 92q0 34 51.5 59t126.5 25q54 0 115 -17.5t166 -68.5q61 56 88.5 128.5t27.5 180.5q0 25 -1 53t-3 58h-174v22h170q0 6 -1 19q-7 104 -7 147q0 130 51 236.5t156 195.5v-18q-44 -56 -64 -113.5t-20 -128.5q0 -45 13.5 -158t17.5 -180h157v-22h-157v-29 q0 -125 -54.5 -225.5t-167.5 -181.5q59 -26 107.5 -38.5t89.5 -12.5q165 0 272 151.5t107 394.5q0 172 -50 314.5t-147 246.5q-65 71 -147 108.5t-172 37.5q-186 0 -312 -120.5t-126 -299.5q0 -120 55 -197t139 -77q36 0 70 14.5t69 44.5v-18q-50 -49 -103.5 -74t-109.5 -25 q-100 0 -165.5 73t-65.5 185q0 77 31.5 154.5t89.5 144.5q92 107 222 166.5t273 59.5q231 0 364.5 -165.5t133.5 -453.5q0 -310 -129.5 -502t-333.5 -192q-40 0 -91.5 11.5t-121.5 37.5q-78 -24 -137.5 -34.5t-110.5 -10.5q-82 0 -137 27.5t-55 66.5zM57 90q0 -30 49.5 -51 t124.5 -21q67 0 119.5 10.5t93.5 30.5q-15 7 -47 21q-156 70 -227 70q-49 0 -81 -18t-32 -42z" />
<glyph unicode="&#xd1;" horiz-adv-x="1602" d="M53 829q0 69 23 137.5t65 127.5q76 106 180 162.5t224 56.5q134 0 233.5 -75.5t165.5 -227.5l211 159q56 -42 96.5 -59.5t77.5 -17.5q33 0 60 11t51 36v-19q-66 -93 -95.5 -225t-29.5 -338q0 -238 44 -374t120 -136q68 0 147 74t148 205l18 -7q-78 -148 -177 -231.5 t-196 -83.5q-94 0 -159.5 119t-65.5 303q0 182 55 356t158 316q-42 -30 -84 -45t-84 -15q-35 0 -75 12.5t-85 36.5l-131 -96q19 -60 28 -121.5t9 -124.5q0 -157 -41.5 -295.5t-118.5 -236.5q-76 -99 -183 -156t-214 -57q-89 0 -150 51t-61 123q0 56 30 94.5t66 38.5 q2 0 5.5 -1t5.5 -1l108 -26q-77 -36 -114 -75t-37 -83t42 -73.5t109 -29.5q185 0 306.5 173t121.5 444q0 292 -104 468.5t-271 176.5q-142 0 -243 -109.5t-101 -267.5q0 -119 66 -200.5t158 -81.5q60 0 98.5 44t38.5 115q0 60 -28.5 96.5t-74.5 36.5q-17 0 -32.5 -4 t-30.5 -12l47 61q6 9 23 15t36 6q51 0 82 -38t31 -99q0 -111 -79 -191t-189 -80q-102 0 -168 72.5t-66 185.5zM909 1436q16 79 44 115.5t73 36.5q16 -1 32 -4.5t32 -10.5l84 -33q6 -3 14 -4.5t22 -1.5q32 0 51 20.5t29 65.5h33q-16 -79 -45 -115t-76 -36q-13 0 -27.5 3 t-32.5 9l-81 33q-11 4 -20.5 6t-22.5 2q-28 0 -47.5 -22t-29.5 -64h-32z" />
<glyph unicode="&#xd2;" horiz-adv-x="1110" d="M102 559q0 177 57.5 331.5t170.5 285.5l-2 -17q-64 -98 -94.5 -208t-30.5 -238q0 -279 117.5 -461t289.5 -182q164 0 260.5 156.5t96.5 426.5q0 248 -103 417t-241 169q-94 0 -153.5 -59.5t-59.5 -153.5q0 -89 57.5 -149t144.5 -60q7 0 16.5 1t26.5 3q-7 -32 -18.5 -54 t-26.5 -34q-9 -4 -18.5 -6t-18.5 -2q-87 0 -145.5 68t-58.5 170q0 137 91.5 238.5t211.5 101.5q153 0 253.5 -152t100.5 -391q0 -132 -28.5 -261t-77.5 -220q-74 -141 -172 -210t-222 -69q-186 0 -305 155.5t-119 403.5zM455 1729q0 7 6.5 12.5t14.5 5.5t15 -4.5t13 -13.5 l199 -314h-35l-201 283q-6 8 -9 15.5t-3 15.5z" />
<glyph unicode="&#xd3;" horiz-adv-x="1110" d="M102 559q0 177 57.5 331.5t170.5 285.5l-2 -17q-64 -98 -94.5 -208t-30.5 -238q0 -279 117.5 -461t289.5 -182q164 0 260.5 156.5t96.5 426.5q0 248 -103 417t-241 169q-94 0 -153.5 -59.5t-59.5 -153.5q0 -89 57.5 -149t144.5 -60q7 0 16.5 1t26.5 3q-7 -32 -18.5 -54 t-26.5 -34q-9 -4 -18.5 -6t-18.5 -2q-87 0 -145.5 68t-58.5 170q0 137 91.5 238.5t211.5 101.5q153 0 253.5 -152t100.5 -391q0 -132 -28.5 -261t-77.5 -220q-74 -141 -172 -210t-222 -69q-186 0 -305 155.5t-119 403.5zM539 1415l199 314q7 10 13.5 14t14.5 4t14.5 -5.5 t6.5 -12.5q0 -8 -3 -15.5t-9 -15.5l-201 -283h-35z" />
<glyph unicode="&#xd4;" horiz-adv-x="1110" d="M102 559q0 177 57.5 331.5t170.5 285.5l-2 -17q-64 -98 -94.5 -208t-30.5 -238q0 -279 117.5 -461t289.5 -182q164 0 260.5 156.5t96.5 426.5q0 248 -103 417t-241 169q-94 0 -153.5 -59.5t-59.5 -153.5q0 -89 57.5 -149t144.5 -60q7 0 16.5 1t26.5 3q-7 -32 -18.5 -54 t-26.5 -34q-9 -4 -18.5 -6t-18.5 -2q-87 0 -145.5 68t-58.5 170q0 137 91.5 238.5t211.5 101.5q153 0 253.5 -152t100.5 -391q0 -132 -28.5 -261t-77.5 -220q-74 -141 -172 -210t-222 -69q-186 0 -305 155.5t-119 403.5zM443 1415l162 328h32l162 -328h-33l-145 267 l-143 -267h-35z" />
<glyph unicode="&#xd5;" horiz-adv-x="1110" d="M102 559q0 177 57.5 331.5t170.5 285.5l-2 -17q-64 -98 -94.5 -208t-30.5 -238q0 -279 117.5 -461t289.5 -182q164 0 260.5 156.5t96.5 426.5q0 248 -103 417t-241 169q-94 0 -153.5 -59.5t-59.5 -153.5q0 -89 57.5 -149t144.5 -60q7 0 16.5 1t26.5 3q-7 -32 -18.5 -54 t-26.5 -34q-9 -4 -18.5 -6t-18.5 -2q-87 0 -145.5 68t-58.5 170q0 137 91.5 238.5t211.5 101.5q153 0 253.5 -152t100.5 -391q0 -132 -28.5 -261t-77.5 -220q-74 -141 -172 -210t-222 -69q-186 0 -305 155.5t-119 403.5zM414 1436q16 79 44 115.5t73 36.5q16 -1 32 -4.5 t32 -10.5l84 -33q6 -3 14 -4.5t22 -1.5q32 0 51 20.5t29 65.5h33q-16 -79 -45 -115t-76 -36q-13 0 -27.5 3t-32.5 9l-81 33q-11 4 -20.5 6t-22.5 2q-28 0 -47.5 -22t-29.5 -64h-32z" />
<glyph unicode="&#xd6;" horiz-adv-x="1110" d="M102 559q0 177 57.5 331.5t170.5 285.5l-2 -17q-64 -98 -94.5 -208t-30.5 -238q0 -279 117.5 -461t289.5 -182q164 0 260.5 156.5t96.5 426.5q0 248 -103 417t-241 169q-94 0 -153.5 -59.5t-59.5 -153.5q0 -89 57.5 -149t144.5 -60q7 0 16.5 1t26.5 3q-7 -32 -18.5 -54 t-26.5 -34q-9 -4 -18.5 -6t-18.5 -2q-87 0 -145.5 68t-58.5 170q0 137 91.5 238.5t211.5 101.5q153 0 253.5 -152t100.5 -391q0 -132 -28.5 -261t-77.5 -220q-74 -141 -172 -210t-222 -69q-186 0 -305 155.5t-119 403.5zM455 1514q0 25 16.5 42t40.5 17t42 -18t18 -41 q0 -26 -16.5 -42t-43.5 -16q-26 0 -41.5 16t-15.5 42zM672 1514q0 25 16.5 42t41.5 17q23 0 40 -17.5t17 -41.5q0 -26 -15.5 -42t-41.5 -16q-27 0 -42.5 16t-15.5 42z" />
<glyph unicode="&#xd7;" horiz-adv-x="1706" d="M309 123l488 487l-488 488l58 57l487 -487l487 487l58 -57l-488 -488l488 -487l-58 -57l-487 487l-487 -487z" />
<glyph unicode="&#xd8;" horiz-adv-x="1110" d="M102 559q0 177 57.5 331.5t170.5 285.5l-2 -17q-63 -98 -94 -207.5t-31 -236.5q0 -184 50.5 -324.5t152.5 -236.5l173 565q-88 9 -148 81t-60 171q0 72 29 137t83 115q42 38 90.5 59t98.5 21q16 0 36.5 -3.5t45.5 -9.5l77 256h35l-80 -268q118 -63 179 -195.5t61 -322.5 q0 -132 -28.5 -261t-77.5 -220q-75 -141 -173 -210t-223 -69q-32 0 -62.5 5t-60.5 15l-88 -286h-34l92 301q-131 66 -200 200t-69 324zM410 1028q0 -86 55.5 -142.5t140.5 -56.5h8l117 379q-25 15 -53 23t-55 8q-93 0 -153 -59.5t-60 -151.5zM432 131q45 -31 89.5 -46 t88.5 -15q163 0 260 157t97 426q0 179 -54 318.5t-153 218.5l-111 -356q22 4 39 9t33 13q-12 -46 -27.5 -76.5t-34.5 -44.5l-9 -3q-23 -8 -36 -12z" />
<glyph unicode="&#xd9;" horiz-adv-x="1464" d="M-16 831q0 98 46.5 193.5t131.5 171.5q61 54 140.5 84.5t156.5 30.5q158 0 251 -109t93 -297q0 -93 -21.5 -298.5t-21.5 -315.5q0 -125 38.5 -189.5t112.5 -64.5q45 0 97.5 39.5t129.5 133.5q-2 43 -3.5 97t-1.5 119q0 114 6 273.5t18 363.5l174 94v-20q-44 -20 -61 -172 t-17 -674q0 -179 14 -219.5t52 -40.5q70 0 158.5 80.5t158.5 214.5l19 -7q-80 -151 -181 -235t-200 -84q-66 0 -100 47.5t-35 140.5q-73 -93 -141.5 -140.5t-133.5 -47.5q-115 0 -172 90.5t-57 271.5q0 100 17.5 286t17.5 272q0 167 -72 255.5t-207 88.5q-140 0 -239 -101.5 t-99 -244.5q0 -141 77.5 -238.5t184.5 -97.5q72 0 113 41.5t41 113.5q0 67 -34.5 107.5t-90.5 40.5q-18 0 -41 -10.5t-51 -30.5l20 63q9 25 38.5 41.5t68.5 16.5q53 0 91 -47.5t38 -116.5q0 -122 -74.5 -203.5t-183.5 -81.5q-117 0 -191.5 88t-74.5 227zM801 1729 q0 7 6.5 12.5t14.5 5.5t15 -4.5t13 -13.5l199 -314h-35l-201 283q-6 8 -9 15.5t-3 15.5z" />
<glyph unicode="&#xda;" horiz-adv-x="1464" d="M-16 831q0 98 46.5 193.5t131.5 171.5q61 54 140.5 84.5t156.5 30.5q158 0 251 -109t93 -297q0 -93 -21.5 -298.5t-21.5 -315.5q0 -125 38.5 -189.5t112.5 -64.5q45 0 97.5 39.5t129.5 133.5q-2 43 -3.5 97t-1.5 119q0 114 6 273.5t18 363.5l174 94v-20q-44 -20 -61 -172 t-17 -674q0 -179 14 -219.5t52 -40.5q70 0 158.5 80.5t158.5 214.5l19 -7q-80 -151 -181 -235t-200 -84q-66 0 -100 47.5t-35 140.5q-73 -93 -141.5 -140.5t-133.5 -47.5q-115 0 -172 90.5t-57 271.5q0 100 17.5 286t17.5 272q0 167 -72 255.5t-207 88.5q-140 0 -239 -101.5 t-99 -244.5q0 -141 77.5 -238.5t184.5 -97.5q72 0 113 41.5t41 113.5q0 67 -34.5 107.5t-90.5 40.5q-18 0 -41 -10.5t-51 -30.5l20 63q9 25 38.5 41.5t68.5 16.5q53 0 91 -47.5t38 -116.5q0 -122 -74.5 -203.5t-183.5 -81.5q-117 0 -191.5 88t-74.5 227zM885 1415l199 314 q7 10 13.5 14t14.5 4t14.5 -5.5t6.5 -12.5q0 -8 -3 -15.5t-9 -15.5l-201 -283h-35z" />
<glyph unicode="&#xdb;" horiz-adv-x="1464" d="M-16 831q0 98 46.5 193.5t131.5 171.5q61 54 140.5 84.5t156.5 30.5q158 0 251 -109t93 -297q0 -93 -21.5 -298.5t-21.5 -315.5q0 -125 38.5 -189.5t112.5 -64.5q45 0 97.5 39.5t129.5 133.5q-2 43 -3.5 97t-1.5 119q0 114 6 273.5t18 363.5l174 94v-20q-44 -20 -61 -172 t-17 -674q0 -179 14 -219.5t52 -40.5q70 0 158.5 80.5t158.5 214.5l19 -7q-80 -151 -181 -235t-200 -84q-66 0 -100 47.5t-35 140.5q-73 -93 -141.5 -140.5t-133.5 -47.5q-115 0 -172 90.5t-57 271.5q0 100 17.5 286t17.5 272q0 167 -72 255.5t-207 88.5q-140 0 -239 -101.5 t-99 -244.5q0 -141 77.5 -238.5t184.5 -97.5q72 0 113 41.5t41 113.5q0 67 -34.5 107.5t-90.5 40.5q-18 0 -41 -10.5t-51 -30.5l20 63q9 25 38.5 41.5t68.5 16.5q53 0 91 -47.5t38 -116.5q0 -122 -74.5 -203.5t-183.5 -81.5q-117 0 -191.5 88t-74.5 227zM789 1415l162 328 h32l162 -328h-33l-145 267l-143 -267h-35z" />
<glyph unicode="&#xdc;" horiz-adv-x="1464" d="M-16 831q0 98 46.5 193.5t131.5 171.5q61 54 140.5 84.5t156.5 30.5q158 0 251 -109t93 -297q0 -93 -21.5 -298.5t-21.5 -315.5q0 -125 38.5 -189.5t112.5 -64.5q45 0 97.5 39.5t129.5 133.5q-2 43 -3.5 97t-1.5 119q0 114 6 273.5t18 363.5l174 94v-20q-44 -20 -61 -172 t-17 -674q0 -179 14 -219.5t52 -40.5q70 0 158.5 80.5t158.5 214.5l19 -7q-80 -151 -181 -235t-200 -84q-66 0 -100 47.5t-35 140.5q-73 -93 -141.5 -140.5t-133.5 -47.5q-115 0 -172 90.5t-57 271.5q0 100 17.5 286t17.5 272q0 167 -72 255.5t-207 88.5q-140 0 -239 -101.5 t-99 -244.5q0 -141 77.5 -238.5t184.5 -97.5q72 0 113 41.5t41 113.5q0 67 -34.5 107.5t-90.5 40.5q-18 0 -41 -10.5t-51 -30.5l20 63q9 25 38.5 41.5t68.5 16.5q53 0 91 -47.5t38 -116.5q0 -122 -74.5 -203.5t-183.5 -81.5q-117 0 -191.5 88t-74.5 227zM801 1514 q0 25 16.5 42t40.5 17t42 -18t18 -41q0 -26 -16.5 -42t-43.5 -16q-26 0 -41.5 16t-15.5 42zM1018 1514q0 25 16.5 42t41.5 17q23 0 40 -17.5t17 -41.5q0 -26 -15.5 -42t-41.5 -16q-27 0 -42.5 16t-15.5 42z" />
<glyph unicode="&#xdd;" horiz-adv-x="1251" d="M37 930q0 82 37.5 157.5t109.5 139.5q44 39 105.5 62.5t120.5 23.5q148 0 233.5 -95.5t85.5 -261.5q0 -76 -20.5 -187t-20.5 -144q0 -56 23.5 -84.5t68.5 -28.5q38 0 82 27.5t109 91.5v35q0 169 56 309t167 246v-19q-46 -61 -69 -142t-23 -181q0 -36 9 -145.5t9 -184.5 q0 -241 -137.5 -396t-345.5 -155q-120 0 -190 49.5t-70 132.5q0 48 24.5 77.5t63.5 29.5q10 0 22 -4.5t25 -12.5l29 -16q-35 -25 -52.5 -54t-17.5 -61q0 -55 46 -89t122 -34q163 0 255.5 105t92.5 293q0 22 -3.5 74t-10.5 124q-59 -65 -106.5 -92.5t-98.5 -27.5 q-85 0 -139 77.5t-54 204.5q0 47 15.5 141t15.5 144q0 111 -52 173t-144 62q-120 0 -207.5 -90.5t-87.5 -216.5q0 -101 61 -172.5t146 -71.5q58 0 91.5 28t45.5 87h16q-18 -99 -71.5 -154t-131.5 -55q-99 0 -167 80t-68 201zM717 1415l199 314q7 10 13.5 14t14.5 4 t14.5 -5.5t6.5 -12.5q0 -8 -3 -15.5t-9 -15.5l-201 -283h-35z" />
<glyph unicode="&#xde;" horiz-adv-x="1071" d="M18 530q0 136 150.5 257.5t380.5 160.5q24 120 83 222t152 188l9 -12q-74 -70 -110 -165t-36 -223q196 0 310 -80.5t114 -215.5q0 -127 -108 -219t-283 -111q-43 -153 -147.5 -242.5t-235.5 -89.5q-117 0 -197 57t-80 136q0 40 28 67t69 27q21 0 41.5 -7t42.5 -22 q-48 -25 -69 -50t-21 -54q0 -57 53 -95.5t135 -38.5q128 0 208.5 97t80.5 256q0 80 -25.5 223t-25.5 209q0 33 2 63.5t6 59.5q-191 -27 -305.5 -123.5t-114.5 -226.5q0 -87 59.5 -148t145.5 -61q25 0 53 6t61 18l-14 -18q-38 -26 -82 -39.5t-90 -13.5q-106 0 -173 58 t-67 150zM647 928q4 -88 31 -228.5t27 -195.5q0 -38 -4.5 -76t-12.5 -76q121 14 194.5 94.5t73.5 198.5q0 112 -85.5 190.5t-223.5 92.5z" />
<glyph unicode="&#xdf;" d="M102 -475q19 15 27 42t8 71v972q0 254 63.5 385t186.5 131q71 0 117.5 -53.5t46.5 -136.5q0 -69 -25.5 -137.5t-83.5 -153.5l-34 -51q-70 -102 -70 -123q0 -19 68 -32q27 -5 45 -9q62 -14 94.5 -50.5t32.5 -92.5q0 -68 -40 -136.5t-112 -125.5q12 -3 24 -4t31 -1 q107 0 208 80.5t175 225.5l17 -7q-81 -155 -184.5 -237t-219.5 -82q-13 0 -33.5 2.5t-45.5 7.5q-16 -5 -24 -6.5t-14 -1.5q-33 0 -54 25.5t-21 66.5q0 40 20.5 65t50.5 25q20 0 30 -8t19 -30q-43 -1 -67.5 -18.5t-24.5 -47.5q0 -26 14.5 -43t37.5 -17q48 0 79 54t31 141 q0 75 -16 112t-56 58q-11 6 -33 17q-57 26 -57 55q0 14 29 76t45 100q38 95 56 170t18 137q0 77 -24.5 120.5t-65.5 43.5q-70 0 -102.5 -92.5t-32.5 -292.5v-1174l-134 -37v17z" />
<glyph unicode="&#xe0;" d="M109 164q0 100 74 179t165 79q27 0 55.5 -9t59.5 -28l110 66v-17q-18 -14 -25 -36.5t-7 -75.5v-191q0 -53 7.5 -71.5t26.5 -18.5q59 0 140 78.5t149 206.5l17 -7q-76 -142 -177.5 -230.5t-179.5 -88.5q-37 0 -58.5 29.5t-23.5 82.5q-39 -56 -86.5 -84t-101.5 -28 q-65 0 -105 45t-40 119zM180 846q0 7 6.5 12.5t14.5 5.5t15 -4.5t13 -13.5l199 -314h-35l-201 283q-6 8 -9 15.5t-3 15.5zM207 211q0 -69 31 -110.5t81 -41.5q35 0 68 23t55 63v142q0 56 -25 86t-73 30q-57 0 -97 -54.5t-40 -137.5z" />
<glyph unicode="&#xe1;" d="M109 164q0 100 74 179t165 79q27 0 55.5 -9t59.5 -28l110 66v-17q-18 -14 -25 -36.5t-7 -75.5v-191q0 -53 7.5 -71.5t26.5 -18.5q59 0 140 78.5t149 206.5l17 -7q-76 -142 -177.5 -230.5t-179.5 -88.5q-37 0 -58.5 29.5t-23.5 82.5q-39 -56 -86.5 -84t-101.5 -28 q-65 0 -105 45t-40 119zM207 211q0 -69 31 -110.5t81 -41.5q35 0 68 23t55 63v142q0 56 -25 86t-73 30q-57 0 -97 -54.5t-40 -137.5zM264 532l199 314q7 10 13.5 14t14.5 4t14.5 -5.5t6.5 -12.5q0 -8 -3 -15.5t-9 -15.5l-201 -283h-35z" />
<glyph unicode="&#xe2;" d="M109 164q0 100 74 179t165 79q27 0 55.5 -9t59.5 -28l110 66v-17q-18 -14 -25 -36.5t-7 -75.5v-191q0 -53 7.5 -71.5t26.5 -18.5q59 0 140 78.5t149 206.5l17 -7q-76 -142 -177.5 -230.5t-179.5 -88.5q-37 0 -58.5 29.5t-23.5 82.5q-39 -56 -86.5 -84t-101.5 -28 q-65 0 -105 45t-40 119zM168 532l162 328h32l162 -328h-33l-145 267l-143 -267h-35zM207 211q0 -69 31 -110.5t81 -41.5q35 0 68 23t55 63v142q0 56 -25 86t-73 30q-57 0 -97 -54.5t-40 -137.5z" />
<glyph unicode="&#xe3;" d="M109 164q0 100 74 179t165 79q27 0 55.5 -9t59.5 -28l110 66v-17q-18 -14 -25 -36.5t-7 -75.5v-191q0 -53 7.5 -71.5t26.5 -18.5q59 0 140 78.5t149 206.5l17 -7q-76 -142 -177.5 -230.5t-179.5 -88.5q-37 0 -58.5 29.5t-23.5 82.5q-39 -56 -86.5 -84t-101.5 -28 q-65 0 -105 45t-40 119zM139 553q16 79 44 115.5t73 36.5q16 -1 32 -4.5t32 -10.5l84 -33q6 -3 14 -4.5t22 -1.5q32 0 51 20.5t29 65.5h33q-16 -79 -45 -115t-76 -36q-13 0 -27.5 3t-32.5 9l-81 33q-11 4 -20.5 6t-22.5 2q-28 0 -47.5 -22t-29.5 -64h-32zM207 211 q0 -69 31 -110.5t81 -41.5q35 0 68 23t55 63v142q0 56 -25 86t-73 30q-57 0 -97 -54.5t-40 -137.5z" />
<glyph unicode="&#xe4;" d="M109 164q0 100 74 179t165 79q27 0 55.5 -9t59.5 -28l110 66v-17q-18 -14 -25 -36.5t-7 -75.5v-191q0 -53 7.5 -71.5t26.5 -18.5q59 0 140 78.5t149 206.5l17 -7q-76 -142 -177.5 -230.5t-179.5 -88.5q-37 0 -58.5 29.5t-23.5 82.5q-39 -56 -86.5 -84t-101.5 -28 q-65 0 -105 45t-40 119zM180 631q0 25 16.5 42t40.5 17t42 -18t18 -41q0 -26 -16.5 -42t-43.5 -16q-26 0 -41.5 16t-15.5 42zM207 211q0 -69 31 -110.5t81 -41.5q35 0 68 23t55 63v142q0 56 -25 86t-73 30q-57 0 -97 -54.5t-40 -137.5zM397 631q0 25 16.5 42t41.5 17 q23 0 40 -17.5t17 -41.5q0 -26 -15.5 -42t-41.5 -16q-27 0 -42.5 16t-15.5 42z" />
<glyph unicode="&#xe5;" d="M109 164q0 100 74 179t165 79q27 0 55.5 -9t59.5 -28l110 66v-17q-17 -15 -24.5 -39t-7.5 -73v-191q0 -53 7.5 -71.5t26.5 -18.5q59 0 140 78.5t149 206.5l17 -7q-76 -142 -177.5 -230.5t-179.5 -88.5q-37 0 -58.5 29.5t-23.5 82.5q-39 -56 -86.5 -84t-101.5 -28 q-65 0 -105 45t-40 119zM199 664q0 73 50 123.5t124 50.5q73 0 123.5 -50.5t50.5 -123.5q0 -74 -50.5 -124.5t-123.5 -50.5q-74 0 -124 50.5t-50 124.5zM207 211q0 -69 31 -110.5t81 -41.5q35 0 68 23t55 63v142q0 56 -25 86t-73 30q-57 0 -97 -54.5t-40 -137.5zM238 664 q0 -59 38 -97.5t95 -38.5t97 39.5t40 96.5t-39.5 96t-97.5 39t-95.5 -38.5t-37.5 -96.5z" />
<glyph unicode="&#xe6;" horiz-adv-x="901" d="M109 164q0 101 74.5 179.5t168.5 78.5q43 0 77 -18.5t60 -55.5l41 74h25l-31 -60q35 30 73.5 45t80.5 15q46 0 76 -25t30 -63q0 -48 -49.5 -99t-152.5 -110q31 -44 72.5 -67t86.5 -23q85 0 170 75t160 216l19 -7q-84 -160 -187 -239.5t-227 -79.5q-76 0 -131 31t-78 88 q-54 -62 -103.5 -90.5t-103.5 -28.5q-70 0 -110.5 44t-40.5 120zM207 211q0 -71 30.5 -111.5t84.5 -40.5q40 0 76 22.5t61 63.5q-4 16 -6 31.5t-2 28.5q0 27 7 54t21 54q-24 46 -57 68t-76 22q-58 0 -98.5 -54.5t-40.5 -137.5zM539 264q0 -35 8 -66.5t24 -58.5 q74 43 111 87.5t37 88.5q0 37 -22 59.5t-56 22.5q-46 0 -74 -36.5t-28 -96.5z" />
<glyph unicode="&#xe7;" horiz-adv-x="584" d="M133 205q0 98 66.5 157.5t177.5 59.5q44 0 72 -17.5t28 -44.5q0 -26 -20 -49t-68 -51l-14 8q9 13 13.5 26t4.5 28q0 33 -19.5 55t-47.5 22q-47 0 -75 -33.5t-28 -91.5q0 -100 59.5 -169.5t141.5 -69.5q86 0 170 74t160 217l18 -7q-84 -160 -187 -239.5t-227 -79.5 q-102 0 -163.5 56t-61.5 149zM160 -365l8 27q59 -27 112.5 -41t98.5 -14q66 0 105.5 34t39.5 91q0 54 -35.5 84t-99.5 30q-13 0 -28 -1.5t-29 -4.5v160h26v-131q2 0 7 1q30 3 42 3q81 0 125.5 -37t44.5 -102q0 -69 -53.5 -111.5t-142.5 -42.5q-49 0 -105 14t-116 41z" />
<glyph unicode="&#xe8;" horiz-adv-x="584" d="M133 203q0 91 66.5 155t160.5 64q46 0 75.5 -25t29.5 -63q0 -48 -49.5 -99.5t-151.5 -109.5q32 -44 73 -67t87 -23q85 0 170 75t160 216l18 -7q-84 -160 -187 -239.5t-227 -79.5q-101 0 -163 56t-62 147zM147 846q0 7 6.5 12.5t14.5 5.5t15 -4.5t13 -13.5l199 -314h-35 l-201 283q-6 8 -9 15.5t-3 15.5zM221 264q0 -35 8.5 -66.5t24.5 -58.5q73 43 110 87.5t37 88.5q0 37 -21.5 59.5t-55.5 22.5q-46 0 -74.5 -36.5t-28.5 -96.5z" />
<glyph unicode="&#xe9;" horiz-adv-x="584" d="M133 203q0 91 66.5 155t160.5 64q46 0 75.5 -25t29.5 -63q0 -48 -49.5 -99.5t-151.5 -109.5q32 -44 73 -67t87 -23q85 0 170 75t160 216l18 -7q-84 -160 -187 -239.5t-227 -79.5q-101 0 -163 56t-62 147zM221 264q0 -35 8.5 -66.5t24.5 -58.5q73 43 110 87.5t37 88.5 q0 37 -21.5 59.5t-55.5 22.5q-46 0 -74.5 -36.5t-28.5 -96.5zM231 532l199 314q7 10 13.5 14t14.5 4t14.5 -5.5t6.5 -12.5q0 -8 -3 -15.5t-9 -15.5l-201 -283h-35z" />
<glyph unicode="&#xea;" horiz-adv-x="584" d="M133 203q0 91 66.5 155t160.5 64q46 0 75.5 -25t29.5 -63q0 -48 -49.5 -99.5t-151.5 -109.5q32 -44 73 -67t87 -23q85 0 170 75t160 216l18 -7q-84 -160 -187 -239.5t-227 -79.5q-101 0 -163 56t-62 147zM135 532l162 328h32l162 -328h-33l-145 267l-143 -267h-35z M221 264q0 -35 8.5 -66.5t24.5 -58.5q73 43 110 87.5t37 88.5q0 37 -21.5 59.5t-55.5 22.5q-46 0 -74.5 -36.5t-28.5 -96.5z" />
<glyph unicode="&#xeb;" horiz-adv-x="584" d="M133 203q0 91 66.5 155t160.5 64q46 0 75.5 -25t29.5 -63q0 -48 -49.5 -99.5t-151.5 -109.5q32 -44 73 -67t87 -23q85 0 170 75t160 216l18 -7q-84 -160 -187 -239.5t-227 -79.5q-101 0 -163 56t-62 147zM147 631q0 25 16.5 42t40.5 17t42 -18t18 -41q0 -26 -16.5 -42 t-43.5 -16q-26 0 -41.5 16t-15.5 42zM221 264q0 -35 8.5 -66.5t24.5 -58.5q73 43 110 87.5t37 88.5q0 37 -21.5 59.5t-55.5 22.5q-46 0 -74.5 -36.5t-28.5 -96.5zM364 631q0 25 16.5 42t41.5 17q23 0 40 -17.5t17 -41.5q0 -26 -15.5 -42t-41.5 -16q-27 0 -42.5 16t-15.5 42z " />
<glyph unicode="&#xec;" horiz-adv-x="455" d="M70 846q0 7 6.5 12.5t14.5 5.5t15 -4.5t13 -13.5l199 -314h-35l-201 283q-6 8 -9 15.5t-3 15.5zM172 115v293l150 43v-15q-30 -16 -40 -31t-10 -53v-186q0 -74 12.5 -100.5t43.5 -26.5q63 0 147 79t152 208l18 -7q-77 -146 -180 -232.5t-195 -86.5q-43 0 -70.5 31.5 t-27.5 83.5z" />
<glyph unicode="&#xed;" horiz-adv-x="455" d="M154 532l199 314q7 10 13.5 14t14.5 4t14.5 -5.5t6.5 -12.5q0 -8 -3 -15.5t-9 -15.5l-201 -283h-35zM172 115v293l150 43v-15q-30 -16 -40 -31t-10 -53v-186q0 -74 12.5 -100.5t43.5 -26.5q63 0 147 79t152 208l18 -7q-77 -146 -180 -232.5t-195 -86.5q-43 0 -70.5 31.5 t-27.5 83.5z" />
<glyph unicode="&#xee;" horiz-adv-x="455" d="M58 532l162 328h32l162 -328h-33l-145 267l-143 -267h-35zM172 115v293l150 43v-15q-30 -16 -40 -31t-10 -53v-186q0 -74 12.5 -100.5t43.5 -26.5q63 0 147 79t152 208l18 -7q-77 -146 -180 -232.5t-195 -86.5q-43 0 -70.5 31.5t-27.5 83.5z" />
<glyph unicode="&#xef;" horiz-adv-x="455" d="M70 631q0 25 16.5 42t40.5 17t42 -18t18 -41q0 -26 -16.5 -42t-43.5 -16q-26 0 -41.5 16t-15.5 42zM172 115v293l150 43v-15q-30 -16 -40 -31t-10 -53v-186q0 -74 12.5 -100.5t43.5 -26.5q63 0 147 79t152 208l18 -7q-77 -146 -180 -232.5t-195 -86.5q-43 0 -70.5 31.5 t-27.5 83.5zM287 631q0 25 16.5 42t41.5 17q23 0 40 -17.5t17 -41.5q0 -26 -15.5 -42t-41.5 -16q-27 0 -42.5 16t-15.5 42z" />
<glyph unicode="&#xf0;" horiz-adv-x="674" d="M96 166q0 95 85.5 175.5t185.5 80.5q12 0 19 -0.5t15 -1.5q-19 50 -56 105.5t-91 117.5l-127 -98l-14 14l127 98q-34 34 -64.5 61.5t-56.5 47.5l12 14q2 0 34 -26t95 -78l137 104l15 -16l-133 -102q156 -134 219 -223t63 -171q0 -74 -48 -143t-125 -104q11 -2 21 -2.5 t23 -0.5q131 0 231 75t181 233l18 -7q-87 -166 -192.5 -242.5t-247.5 -76.5q-28 0 -46.5 0.5t-37.5 1.5q-10 -1 -19.5 -1.5t-23.5 -0.5q-91 0 -145 45t-54 121zM205 233q0 -96 34.5 -152t92.5 -56t91.5 44.5t33.5 123.5q0 91 -34 146.5t-89 55.5q-58 0 -93.5 -44.5 t-35.5 -117.5z" />
<glyph unicode="&#xf1;" horiz-adv-x="707" d="M119 -8q17 14 25 41t8 73v310l122 35v-15q-11 -10 -16.5 -21t-5.5 -26v-6v-111q65 73 123 111.5t102 38.5q38 0 62 -22.5t24 -57.5v-221q0 -38 9.5 -56t29.5 -18q54 0 131.5 77t143.5 202l18 -7q-76 -145 -177.5 -232t-189.5 -87q-27 0 -45 21t-18 55v235q0 33 -12 47.5 t-39 14.5q-25 0 -63 -29.5t-99 -95.5v-236l-133 -37v17zM155 553q16 79 44 115.5t73 36.5q16 -1 32 -4.5t32 -10.5l84 -33q6 -3 14 -4.5t22 -1.5q32 0 51 20.5t29 65.5h33q-16 -79 -45 -115t-76 -36q-13 0 -27.5 3t-32.5 9l-81 33q-11 4 -20.5 6t-22.5 2q-28 0 -47.5 -22 t-29.5 -64h-32z" />
<glyph unicode="&#xf2;" horiz-adv-x="674" d="M96 166q0 99 85.5 177.5t199.5 78.5q79 0 129.5 -43t50.5 -111q0 -74 -48 -143t-125 -104q11 -2 21 -2.5t23 -0.5q131 0 231 75t181 233l18 -7q-87 -166 -192.5 -242.5t-247.5 -76.5q-28 0 -46.5 0.5t-37.5 1.5q-10 -1 -19.5 -1.5t-23.5 -0.5q-91 0 -145 45t-54 121z M176 846q0 7 6.5 12.5t14.5 5.5t15 -4.5t13 -13.5l199 -314h-35l-201 283q-6 8 -9 15.5t-3 15.5zM205 233q0 -96 34.5 -152t92.5 -56q57 0 91 44.5t34 123.5q0 91 -34 146.5t-89 55.5q-58 0 -93.5 -44.5t-35.5 -117.5z" />
<glyph unicode="&#xf3;" horiz-adv-x="674" d="M96 166q0 99 85.5 177.5t199.5 78.5q79 0 129.5 -43t50.5 -111q0 -74 -48 -143t-125 -104q11 -2 21 -2.5t23 -0.5q131 0 231 75t181 233l18 -7q-87 -166 -192.5 -242.5t-247.5 -76.5q-28 0 -46.5 0.5t-37.5 1.5q-10 -1 -19.5 -1.5t-23.5 -0.5q-91 0 -145 45t-54 121z M205 233q0 -96 34.5 -152t92.5 -56q57 0 91 44.5t34 123.5q0 91 -34 146.5t-89 55.5q-58 0 -93.5 -44.5t-35.5 -117.5zM260 532l199 314q7 10 13.5 14t14.5 4t14.5 -5.5t6.5 -12.5q0 -8 -3 -15.5t-9 -15.5l-201 -283h-35z" />
<glyph unicode="&#xf4;" horiz-adv-x="674" d="M96 166q0 99 85.5 177.5t199.5 78.5q79 0 129.5 -43t50.5 -111q0 -74 -48 -143t-125 -104q11 -2 21 -2.5t23 -0.5q131 0 231 75t181 233l18 -7q-87 -166 -192.5 -242.5t-247.5 -76.5q-28 0 -46.5 0.5t-37.5 1.5q-10 -1 -19.5 -1.5t-23.5 -0.5q-91 0 -145 45t-54 121z M164 532l162 328h32l162 -328h-33l-145 267l-143 -267h-35zM205 233q0 -96 34.5 -152t92.5 -56q57 0 91 44.5t34 123.5q0 91 -34 146.5t-89 55.5q-58 0 -93.5 -44.5t-35.5 -117.5z" />
<glyph unicode="&#xf5;" horiz-adv-x="674" d="M96 166q0 99 85.5 177.5t199.5 78.5q79 0 129.5 -43t50.5 -111q0 -74 -48 -143t-125 -104q11 -2 21 -2.5t23 -0.5q131 0 231 75t181 233l18 -7q-87 -166 -192.5 -242.5t-247.5 -76.5q-28 0 -46.5 0.5t-37.5 1.5q-10 -1 -19.5 -1.5t-23.5 -0.5q-91 0 -145 45t-54 121z M135 553q16 79 44 115.5t73 36.5q16 -1 32 -4.5t32 -10.5l84 -33q6 -3 14 -4.5t22 -1.5q32 0 51 20.5t29 65.5h33q-16 -79 -45 -115t-76 -36q-13 0 -27.5 3t-32.5 9l-81 33q-11 4 -20.5 6t-22.5 2q-28 0 -47.5 -22t-29.5 -64h-32zM205 233q0 -96 34.5 -152t92.5 -56 q57 0 91 44.5t34 123.5q0 91 -34 146.5t-89 55.5q-58 0 -93.5 -44.5t-35.5 -117.5z" />
<glyph unicode="&#xf6;" horiz-adv-x="674" d="M96 166q0 99 85.5 177.5t199.5 78.5q79 0 129.5 -43t50.5 -111q0 -74 -48 -143t-125 -104q11 -2 21 -2.5t23 -0.5q131 0 231 75t181 233l18 -7q-87 -166 -192.5 -242.5t-247.5 -76.5q-28 0 -46.5 0.5t-37.5 1.5q-10 -1 -19.5 -1.5t-23.5 -0.5q-91 0 -145 45t-54 121z M176 631q0 25 16.5 42t40.5 17t42 -18t18 -41q0 -26 -16.5 -42t-43.5 -16q-26 0 -41.5 16t-15.5 42zM205 233q0 -96 34.5 -152t92.5 -56q57 0 91 44.5t34 123.5q0 91 -34 146.5t-89 55.5q-58 0 -93.5 -44.5t-35.5 -117.5zM393 631q0 25 16.5 42t41.5 17q23 0 40 -17.5 t17 -41.5q0 -26 -15.5 -42t-41.5 -16q-27 0 -42.5 16t-15.5 42z" />
<glyph unicode="&#xf7;" horiz-adv-x="1706" d="M254 569v82h1198v-82h-1198zM756 264q0 41 29 71t69 30q41 0 69.5 -29.5t28.5 -71.5q0 -40 -28.5 -69t-69.5 -29t-69.5 28.5t-28.5 69.5zM756 956q0 41 28.5 70t69.5 29t69.5 -28.5t28.5 -70.5q0 -40 -28.5 -70t-69.5 -30t-69.5 29.5t-28.5 70.5z" />
<glyph unicode="&#xf8;" horiz-adv-x="674" d="M96 164q0 102 84 180t199 78q14 0 43 -4h4l90 184h27l-94 -190q54 -19 83 -56t29 -88q0 -74 -48 -143t-125 -104q11 -2 21 -2.5t23 -0.5q131 0 231 75t181 233l18 -7q-87 -166 -192.5 -242.5t-247.5 -76.5q-28 0 -46.5 0.5t-37.5 1.5q-6 -1 -11.5 -1.5t-19.5 -0.5 q-13 0 -46 3q-8 1 -11 1l-107 -217h-26l108 221q-60 16 -94.5 57.5t-34.5 98.5zM205 233q0 -54 12 -97t35 -73l149 306q-13 13 -29 19.5t-36 6.5q-59 0 -95 -44.5t-36 -117.5zM270 45q17 -10 33 -15t31 -5q57 0 90 45t33 123q0 42 -10.5 82.5t-28.5 70.5z" />
<glyph unicode="&#xf9;" horiz-adv-x="707" d="M152 80v336l122 35v-15q-11 -10 -16.5 -21t-5.5 -26v-6v-272q0 -33 11 -47.5t36 -14.5q27 0 64 27.5t102 97.5v240l133 37v-17q-18 -15 -26.5 -42t-8.5 -70v-201q0 -37 9.5 -54.5t29.5 -17.5q54 0 131.5 76t143.5 201l18 -7q-76 -145 -177.5 -232t-189.5 -87 q-27 0 -45 21t-18 55v74q-66 -74 -124 -112t-103 -38q-39 0 -62.5 22t-23.5 58zM201 846q0 7 6.5 12.5t14.5 5.5t15 -4.5t13 -13.5l199 -314h-35l-201 283q-6 8 -9 15.5t-3 15.5z" />
<glyph unicode="&#xfa;" horiz-adv-x="707" d="M152 80v336l122 35v-15q-11 -10 -16.5 -21t-5.5 -26v-6v-272q0 -33 11 -47.5t36 -14.5q27 0 64 27.5t102 97.5v240l133 37v-17q-18 -15 -26.5 -42t-8.5 -70v-201q0 -37 9.5 -54.5t29.5 -17.5q54 0 131.5 76t143.5 201l18 -7q-76 -145 -177.5 -232t-189.5 -87 q-27 0 -45 21t-18 55v74q-66 -74 -124 -112t-103 -38q-39 0 -62.5 22t-23.5 58zM285 532l199 314q7 10 13.5 14t14.5 4t14.5 -5.5t6.5 -12.5q0 -8 -3 -15.5t-9 -15.5l-201 -283h-35z" />
<glyph unicode="&#xfb;" horiz-adv-x="707" d="M152 80v336l122 35v-15q-11 -10 -16.5 -21t-5.5 -26v-6v-272q0 -33 11 -47.5t36 -14.5q27 0 64 27.5t102 97.5v240l133 37v-17q-18 -15 -26.5 -42t-8.5 -70v-201q0 -37 9.5 -54.5t29.5 -17.5q54 0 131.5 76t143.5 201l18 -7q-76 -145 -177.5 -232t-189.5 -87 q-27 0 -45 21t-18 55v74q-66 -74 -124 -112t-103 -38q-39 0 -62.5 22t-23.5 58zM189 532l162 328h32l162 -328h-33l-145 267l-143 -267h-35z" />
<glyph unicode="&#xfc;" horiz-adv-x="707" d="M152 80v336l122 35v-15q-11 -10 -16.5 -21t-5.5 -26v-6v-272q0 -33 11 -47.5t36 -14.5q27 0 64 27.5t102 97.5v240l133 37v-17q-18 -15 -26.5 -42t-8.5 -70v-201q0 -37 9.5 -54.5t29.5 -17.5q54 0 131.5 76t143.5 201l18 -7q-76 -145 -177.5 -232t-189.5 -87 q-27 0 -45 21t-18 55v74q-66 -74 -124 -112t-103 -38q-39 0 -62.5 22t-23.5 58zM201 631q0 25 16.5 42t40.5 17t42 -18t18 -41q0 -26 -16.5 -42t-43.5 -16q-26 0 -41.5 16t-15.5 42zM418 631q0 25 16.5 42t41.5 17q23 0 40 -17.5t17 -41.5q0 -26 -15.5 -42t-41.5 -16 q-27 0 -42.5 16t-15.5 42z" />
<glyph unicode="&#xfd;" d="M74 -481q0 87 91.5 190t276.5 223v207q-65 -73 -113.5 -106t-90.5 -33q-39 0 -62.5 22t-23.5 58v336l122 35v-15q-11 -10 -16.5 -21t-5.5 -26v-6v-272q0 -33 10 -47.5t33 -14.5t57.5 27.5t89.5 89.5v248l133 37v-17q-18 -15 -26 -42t-8 -70v-330q108 60 189 143.5 t134 190.5l17 -7q-56 -109 -141.5 -197t-198.5 -153v-51q0 -234 -96.5 -384t-237.5 -150q-63 0 -98 35.5t-35 99.5zM156 -473q0 -56 21.5 -88.5t58.5 -32.5q89 0 147.5 113.5t58.5 298.5v92q-143 -88 -214.5 -183.5t-71.5 -199.5zM264 532l199 314q7 10 13.5 14t14.5 4 t14.5 -5.5t6.5 -12.5q0 -8 -3 -15.5t-9 -15.5l-201 -283h-35z" />
<glyph unicode="&#xfe;" d="M119 -483q17 14 25 40.5t8 71.5v1020q0 202 82.5 339.5t191.5 137.5q49 0 74.5 -33t25.5 -98q0 -89 -70.5 -237.5t-203.5 -337.5v-111q51 57 97.5 85t90.5 28q65 0 104.5 -45t39.5 -119q0 -75 -43 -140t-113 -95q2 -1 5 -1q28 -4 40 -4q116 0 215 78t176 230l17 -7 q-80 -154 -184.5 -236.5t-217.5 -82.5q-14 0 -34.5 2.5t-48.5 7.5q-2 0 -7 -2q-34 -10 -49 -10q-23 0 -44.5 9t-43.5 28v-498l-133 -37v17zM252 59q26 -21 49.5 -31t46.5 -10q57 0 97 55t40 138q0 70 -30 109.5t-82 39.5q-30 0 -61.5 -21.5t-59.5 -62.5v-217zM252 457 q101 150 153 284.5t52 245.5q0 54 -15.5 81.5t-46.5 27.5q-67 0 -105 -109t-38 -307v-223z" />
<glyph unicode="&#xff;" d="M74 -481q0 87 91.5 190t276.5 223v207q-65 -73 -113.5 -106t-90.5 -33q-39 0 -62.5 22t-23.5 58v336l122 35v-15q-11 -10 -16.5 -21t-5.5 -26v-6v-272q0 -33 10 -47.5t33 -14.5t57.5 27.5t89.5 89.5v248l133 37v-17q-18 -15 -26 -42t-8 -70v-330q108 60 189 143.5 t134 190.5l17 -7q-56 -109 -141.5 -197t-198.5 -153v-51q0 -234 -96.5 -384t-237.5 -150q-63 0 -98 35.5t-35 99.5zM156 -473q0 -56 21.5 -88.5t58.5 -32.5q89 0 147.5 113.5t58.5 298.5v92q-143 -88 -214.5 -183.5t-71.5 -199.5zM180 631q0 25 16.5 42t40.5 17t42 -18 t18 -41q0 -26 -16.5 -42t-43.5 -16q-26 0 -41.5 16t-15.5 42zM397 631q0 25 16.5 42t41.5 17q23 0 40 -17.5t17 -41.5q0 -26 -15.5 -42t-41.5 -16q-27 0 -42.5 16t-15.5 42z" />
<glyph unicode="&#x152;" horiz-adv-x="1683" d="M102 559q0 177 57.5 331.5t170.5 285.5l-2 -17q-64 -98 -94.5 -208t-30.5 -238q0 -279 117.5 -461t289.5 -182q56 0 106.5 21.5t94.5 64.5q-44 61 -66 124.5t-22 129.5q0 112 58.5 209t174.5 178q-33 200 -125.5 321t-207.5 121q-94 0 -153.5 -59.5t-59.5 -153.5 q0 -89 57.5 -148t144.5 -59q18 0 26.5 0.5t16.5 1.5q-7 -32 -18.5 -54t-26.5 -34q-7 -3 -15.5 -4.5t-21.5 -1.5q-87 0 -145.5 67t-58.5 169q0 138 91.5 240t211.5 102q77 0 143.5 -43t118.5 -125q37 74 121 121t178 47q72 0 164 -43t104 -43q17 0 46 20t67 57v-22 q-54 -57 -102 -88t-80 -31q-44 0 -137.5 58.5t-131.5 58.5q-75 0 -127.5 -56t-52.5 -139q0 -53 25 -107t73 -103q38 13 75.5 19.5t76.5 6.5q61 0 100 -21.5t39 -54.5q0 -29 -37.5 -48t-97.5 -19q-45 0 -97 16t-112 49q-1 -173 -32 -314.5t-91 -246.5q61 -109 147 -165 t191 -56q125 0 209 82t84 204q0 109 -59 177.5t-152 68.5q-59 0 -100 -39.5t-41 -97.5q0 -49 30.5 -83t73.5 -34q14 0 30.5 5t37.5 16l-43 -65q-9 -12 -23.5 -17.5t-36.5 -5.5q-50 0 -83 37t-33 94q0 94 77.5 166.5t180.5 72.5q97 0 157 -62t60 -163q0 -164 -127.5 -276.5 t-319.5 -112.5q-107 0 -192.5 35t-147.5 104q-65 -70 -138.5 -104.5t-158.5 -34.5q-186 0 -306 155.5t-120 403.5zM846 489q0 -53 12 -107t37 -108q34 64 53 162.5t19 216.5q0 24 -1.5 53.5t-5.5 63.5q-56 -51 -85 -122.5t-29 -158.5zM1094 854q53 -42 96 -61t84 -19 q33 0 56.5 12.5t23.5 28.5q0 26 -34 42.5t-87 16.5q-26 0 -60.5 -5t-78.5 -15z" />
<glyph unicode="&#x153;" horiz-adv-x="909" d="M96 166q0 99 85.5 177.5t199.5 78.5q47 0 86 -17t59 -47q37 33 76.5 48.5t83.5 15.5q46 0 76.5 -25t30.5 -63q0 -48 -49.5 -99.5t-151.5 -109.5q31 -44 72.5 -67t87.5 -23q85 0 169.5 75t159.5 216l19 -7q-84 -160 -187.5 -239.5t-228.5 -79.5q-64 0 -112.5 24t-82.5 72 q-45 -48 -94.5 -72t-105.5 -24q-88 0 -140.5 45.5t-52.5 120.5zM205 233q0 -96 34.5 -152t92.5 -56t91.5 44.5t33.5 123.5q0 91 -34 146.5t-89 55.5q-58 0 -93.5 -44.5t-35.5 -117.5zM549 264q0 -35 8 -66.5t25 -58.5q73 43 110 87.5t37 88.5q0 36 -22.5 58t-57.5 22 q-45 0 -72.5 -35.5t-27.5 -95.5z" />
<glyph unicode="&#x178;" horiz-adv-x="1251" d="M37 930q0 82 37.5 157.5t109.5 139.5q44 39 105.5 62.5t120.5 23.5q148 0 233.5 -95.5t85.5 -261.5q0 -76 -20.5 -187t-20.5 -144q0 -56 23.5 -84.5t68.5 -28.5q38 0 82 27.5t109 91.5v35q0 169 56 309t167 246v-19q-46 -61 -69 -142t-23 -181q0 -36 9 -145.5t9 -184.5 q0 -241 -137.5 -396t-345.5 -155q-120 0 -190 49.5t-70 132.5q0 48 24.5 77.5t63.5 29.5q10 0 22 -4.5t25 -12.5l29 -16q-35 -25 -52.5 -54t-17.5 -61q0 -55 46 -89t122 -34q163 0 255.5 105t92.5 293q0 22 -3.5 74t-10.5 124q-59 -65 -106.5 -92.5t-98.5 -27.5 q-85 0 -139 77.5t-54 204.5q0 47 15.5 141t15.5 144q0 111 -52 173t-144 62q-120 0 -207.5 -90.5t-87.5 -216.5q0 -101 61 -172.5t146 -71.5q58 0 91.5 28t45.5 87h16q-18 -99 -71.5 -154t-131.5 -55q-99 0 -167 80t-68 201zM633 1514q0 25 16.5 42t40.5 17t42 -18t18 -41 q0 -26 -16.5 -42t-43.5 -16q-26 0 -41.5 16t-15.5 42zM850 1514q0 25 16.5 42t41.5 17q23 0 40 -17.5t17 -41.5q0 -26 -15.5 -42t-41.5 -16q-27 0 -42.5 16t-15.5 42z" />
<glyph unicode="&#x2c6;" horiz-adv-x="1024" d="M334 532l162 328h32l162 -328h-33l-145 267l-143 -267h-35z" />
<glyph unicode="&#x2dc;" horiz-adv-x="1024" d="M305 553q16 79 44 115.5t73 36.5q16 -1 32 -4.5t32 -10.5l84 -33q6 -3 14 -4.5t22 -1.5q32 0 51 20.5t29 65.5h33q-16 -79 -45 -115t-76 -36q-13 0 -27.5 3t-32.5 9l-81 33q-11 4 -20.5 6t-22.5 2q-28 0 -47.5 -22t-29.5 -64h-32z" />
<glyph unicode="&#x2000;" horiz-adv-x="873" />
<glyph unicode="&#x2001;" horiz-adv-x="1747" />
<glyph unicode="&#x2002;" horiz-adv-x="873" />
<glyph unicode="&#x2003;" horiz-adv-x="1747" />
<glyph unicode="&#x2004;" horiz-adv-x="582" />
<glyph unicode="&#x2005;" horiz-adv-x="436" />
<glyph unicode="&#x2006;" horiz-adv-x="291" />
<glyph unicode="&#x2007;" horiz-adv-x="291" />
<glyph unicode="&#x2008;" horiz-adv-x="218" />
<glyph unicode="&#x2009;" horiz-adv-x="349" />
<glyph unicode="&#x200a;" horiz-adv-x="97" />
<glyph unicode="&#x2010;" horiz-adv-x="877" d="M307 180l58 86h352l-58 -86h-352z" />
<glyph unicode="&#x2011;" horiz-adv-x="877" d="M307 180l58 86h352l-58 -86h-352z" />
<glyph unicode="&#x2012;" horiz-adv-x="877" d="M307 180l58 86h352l-58 -86h-352z" />
<glyph unicode="&#x2013;" horiz-adv-x="1024" d="M0 190v66h1024v-66h-1024z" />
<glyph unicode="&#x2014;" horiz-adv-x="2048" d="M0 190v66h2048v-66h-2048z" />
<glyph unicode="&#x2018;" horiz-adv-x="342" d="M160 891q0 62 43.5 123.5t124.5 113.5v-20q-53 -37 -80 -75t-27 -75q0 -25 14.5 -43.5t43.5 -27.5l32 28l15 -14l-121 -108q-23 20 -34 43.5t-11 54.5z" />
<glyph unicode="&#x2019;" horiz-adv-x="342" d="M160 793v20q50 34 77 72.5t27 75.5q0 28 -13.5 46t-41.5 27l-33 -28l-14 12l121 110q23 -21 34 -45.5t11 -54.5q0 -60 -44 -121.5t-124 -113.5z" />
<glyph unicode="&#x201a;" horiz-adv-x="342" d="M160 -193q51 37 77.5 74.5t26.5 73.5q0 29 -13.5 47t-42.5 26l-32 -28l-14 12l121 111q23 -22 34 -46t11 -54q0 -61 -44 -122.5t-124 -113.5v20z" />
<glyph unicode="&#x201c;" horiz-adv-x="664" d="M160 891q0 62 43.5 123.5t124.5 113.5v-20q-53 -37 -80 -75t-27 -75q0 -25 14.5 -43.5t43.5 -27.5l32 28l15 -14l-121 -108q-23 20 -34 43.5t-11 54.5zM434 891q0 62 43.5 123.5t124.5 113.5v-20q-50 -34 -77 -72.5t-27 -77.5q0 -25 14.5 -43.5t42.5 -27.5l31 28l14 -14 l-121 -108q-23 20 -34 43.5t-11 54.5z" />
<glyph unicode="&#x201d;" horiz-adv-x="664" d="M160 793v20q50 34 77 72.5t27 75.5q0 28 -13.5 46t-41.5 27l-33 -28l-14 12l121 110q23 -21 34 -45.5t11 -54.5q0 -60 -44 -121.5t-124 -113.5zM434 793v20q51 35 79 73t28 75q0 27 -14.5 45.5t-42.5 27.5l-33 -28l-13 12l119 110q23 -21 34 -45.5t11 -54.5 q0 -60 -43.5 -121.5t-124.5 -113.5z" />
<glyph unicode="&#x201e;" horiz-adv-x="664" d="M160 -193q51 37 77.5 74.5t26.5 73.5q0 29 -13.5 47t-42.5 26l-32 -28l-14 12l121 111q23 -22 34 -46t11 -54q0 -61 -44 -122.5t-124 -113.5v20zM434 -193q52 37 79.5 75t27.5 73q0 28 -14.5 46.5t-43.5 26.5l-32 -28l-13 12l119 111q23 -22 34 -46t11 -54 q0 -61 -43.5 -122.5t-124.5 -113.5v20z" />
<glyph unicode="&#x2022;" horiz-adv-x="1208" d="M307 762q0 123 87 209t210 86q122 0 208.5 -86.5t86.5 -208.5t-87.5 -209.5t-209.5 -87.5q-123 0 -209 87t-86 210z" />
<glyph unicode="&#x2026;" horiz-adv-x="2048" d="M375 61q0 26 18 44t43 18q26 0 44 -17.5t18 -44.5q0 -25 -18.5 -43t-43.5 -18q-24 0 -42.5 18.5t-18.5 42.5zM1057 61q0 26 18 44t43 18q26 0 44 -17.5t18 -44.5q0 -25 -18.5 -43t-43.5 -18q-24 0 -42.5 18.5t-18.5 42.5zM1741 61q0 26 18 44t43 18q26 0 44 -17.5 t18 -44.5q0 -25 -18.5 -43t-43.5 -18q-24 0 -42.5 18.5t-18.5 42.5z" />
<glyph unicode="&#x202f;" horiz-adv-x="349" />
<glyph unicode="&#x2039;" horiz-adv-x="451" d="M182 215q0 13 57 60q29 24 46 38q29 26 71 66q46 43 56 43q3 0 5.5 -2.5t2.5 -5.5q0 -15 -23 -50.5t-112 -150.5q79 -96 107 -137t28 -60q-1 -3 -3.5 -4.5t-6.5 -1.5q-9 0 -55 43q-41 38 -70 64q-17 14 -46 38q-57 47 -57 60z" />
<glyph unicode="&#x203a;" horiz-adv-x="451" d="M182 16q0 15 23 50.5t112 150.5q-75 91 -105 135t-30 62q0 4 2.5 6t5.5 2q10 0 56 -43q42 -40 71 -66q17 -14 46 -38q57 -47 57 -60t-57 -60q-29 -24 -46 -38q-29 -26 -70 -64q-46 -43 -54 -43q-5 0 -7.5 1.5t-3.5 4.5z" />
<glyph unicode="&#x205f;" horiz-adv-x="436" />
<glyph unicode="&#x20ac;" horiz-adv-x="635" d="M-26 238l26 24h112q-2 24 -2.5 38t-0.5 28q0 19 1.5 38.5t4.5 38.5q-9 0 -49.5 -1t-91.5 -2l26 24h119q17 82 57.5 155t102.5 132q36 35 75.5 53t77.5 18q62 0 97.5 -27.5t35.5 -74.5q0 -35 -25 -73t-71 -72q-23 -18 -45.5 -27.5t-42.5 -9.5q-37 0 -59.5 22t-22.5 58 q0 12 5 24t12 17l48 28q-1 -4 -3 -11q-7 -22 -7 -32q0 -33 14 -54.5t38 -21.5q42 0 69 30.5t27 76.5q0 53 -30.5 83t-82.5 30q-74 0 -122.5 -89.5t-53.5 -234.5h309l-24 -24q-59 1 -98.5 2t-43.5 2h-143v-5q0 -33 3.5 -67.5t11.5 -71.5h208l-24 -24q-50 2 -60 2h-119 q29 -98 88.5 -153.5t135.5 -55.5q62 0 113.5 35t86.5 102l17 -6q-48 -84 -108.5 -123t-145.5 -39q-117 0 -198 64t-105 176q-26 0 -58.5 -0.5t-84.5 -1.5z" />
<glyph unicode="&#x2122;" horiz-adv-x="1683" d="M254 1257l10 175h436l11 -175h-23q-8 81 -41.5 116.5t-101.5 35.5h-23v-426q0 -24 14 -39.5t35 -15.5h31v-25h-242v25h33q22 0 35.5 15.5t13.5 39.5v426h-22q-69 0 -102.5 -35.5t-41.5 -116.5h-22zM801 903v23h30q22 0 36 15.5t14 41.5v367q0 24 -14 40.5t-36 16.5h-30 v25h170l145 -414l158 414h162v-25h-31q-22 0 -35.5 -15t-13.5 -40v-369q0 -24 13.5 -39.5t35.5 -15.5h31v-25h-228v25h31q22 0 35.5 15.5t13.5 39.5v406l-186 -490h-8l-174 487v-403q0 -24 13.5 -39.5t35.5 -15.5h30v-25h-198z" />
<glyph unicode="&#xe000;" horiz-adv-x="420" d="M0 0v420h420v-420h-420z" />
<glyph unicode="&#xfb01;" horiz-adv-x="883" d="M51 31q0 16 8 24t23 8q9 0 16.5 -7.5t7.5 -16.5v-25q0 -14 15.5 -21.5t50.5 -8.5v665q0 201 82.5 339t189.5 138q49 0 76 -34t27 -97q0 -86 -71 -233.5t-206 -341.5v-428q104 37 187 109t141 175v132l152 43v-15q-31 -17 -41.5 -32.5t-10.5 -51.5v-186q0 -74 12.5 -100.5 t43.5 -26.5q63 0 147 79t152 208l18 -7q-78 -147 -179.5 -233t-193.5 -86q-44 0 -72 32t-28 83v129q-61 -99 -143.5 -167.5t-184.5 -105.5v-426l-133 -39v17q18 15 26.5 42.5t8.5 72.5v329q-56 2 -88.5 19t-32.5 45zM270 457q102 151 154.5 285.5t52.5 244.5q0 53 -16 81 t-47 28q-68 0 -106 -109t-38 -307v-223zM598 723q0 23 18 41t41 18q25 0 42.5 -17t17.5 -42q0 -23 -18.5 -41t-41.5 -18q-21 0 -40 18.5t-19 40.5z" />
<glyph unicode="&#xfb02;" horiz-adv-x="883" d="M51 31q0 16 8 24t23 8q9 0 16.5 -7.5t7.5 -16.5v-25q0 -14 15.5 -21.5t50.5 -8.5v665q0 201 82.5 339t189.5 138q49 0 76 -34t27 -97q0 -86 -71 -233.5t-206 -341.5v-428q106 39 189.5 111.5t138.5 172.5v373q0 202 82 339.5t190 137.5q49 0 76 -34t27 -97 q0 -87 -70.5 -235t-204.5 -340v-254q0 -82 12 -104.5t44 -22.5q63 0 147 79t152 208l18 -7q-78 -148 -179.5 -233.5t-195.5 -85.5q-50 0 -74 36.5t-24 113.5v94q-59 -97 -142 -166.5t-186 -106.5v-426l-133 -39v17q18 15 26.5 42.5t8.5 72.5v329q-56 2 -88.5 19t-32.5 45z M270 457q102 151 154.5 285.5t52.5 244.5q0 53 -16 81t-47 28q-68 0 -106 -109t-38 -307v-223zM698 457q101 150 153 284.5t52 245.5q0 53 -16 81t-47 28q-68 0 -105 -108.5t-37 -307.5v-223z" />
</font>
</defs>
</svg>
